<?xml version="1.0" standalone="no"?>
<!DOCTYPE svg PUBLIC "-//W3C//DTD SVG 20010904//EN"
 "http://www.w3.org/TR/2001/REC-SVG-20010904/DTD/svg10.dtd">
<svg version="1.0" xmlns="http://www.w3.org/2000/svg"
 width="1024.000000pt" height="1024.000000pt" viewBox="0 0 1024.000000 1024.000000"
 preserveAspectRatio="xMidYMid meet">
<metadata>
Created by potrace 1.14, written by Peter Selinger 2001-2017
</metadata>
<g transform="translate(0.000000,1024.000000) scale(0.100000,-0.100000)"
fill="#000000" stroke="none">
<path d="M5153 9435 c0 -8 4 -12 9 -9 5 3 6 10 3 15 -9 13 -12 11 -12 -6z"/>
<path d="M5101 9396 c-8 -10 -9 -16 -1 -21 6 -4 9 -1 8 7 -2 7 3 12 10 10 8
-1 11 2 7 8 -8 13 -10 13 -24 -4z"/>
<path d="M5279 9400 c-3 -20 -4 -25 -12 -37 -8 -12 10 -29 20 -19 4 3 1 6 -6
6 -7 0 -9 5 -4 13 9 15 15 47 8 47 -3 0 -6 -4 -6 -10z"/>
<path d="M4954 9392 c3 -5 0 -13 -6 -15 -8 -3 -6 -6 5 -6 19 -1 23 14 5 25 -6
4 -8 3 -4 -4z"/>
<path d="M4793 9375 c0 -8 4 -12 9 -9 5 3 6 10 3 15 -9 13 -12 11 -12 -6z"/>
<path d="M4906 9382 c-3 -5 1 -9 9 -9 8 0 12 4 9 9 -3 4 -7 8 -9 8 -2 0 -6 -4
-9 -8z"/>
<path d="M5070 9385 c0 -5 5 -17 10 -25 5 -8 10 -10 10 -5 0 6 -5 17 -10 25
-5 8 -10 11 -10 5z"/>
<path d="M5226 9376 c3 -9 1 -16 -5 -16 -6 0 -11 4 -11 8 0 5 -7 9 -16 9 -15
0 -15 -1 0 -12 15 -12 15 -13 -1 -19 -10 -3 -25 -9 -33 -12 -8 -4 -6 0 4 8 15
12 16 17 6 23 -9 6 -11 4 -5 -5 6 -10 0 -12 -24 -8 -25 4 -31 2 -26 -10 4 -12
3 -13 -10 -2 -8 7 -15 9 -15 5 0 -5 -9 0 -20 10 -16 15 -22 16 -36 5 -13 -12
-17 -11 -25 1 -8 11 -9 9 -5 -6 5 -18 1 -21 -29 -21 -24 0 -34 4 -31 13 3 7
-1 10 -9 7 -8 -3 -13 -9 -12 -12 1 -4 -2 -7 -8 -7 -5 0 -9 5 -9 12 1 6 -4 9
-12 6 -7 -2 -10 -11 -7 -19 3 -8 0 -14 -7 -14 -6 0 -8 5 -5 10 3 6 1 10 -4 10
-6 0 -11 -8 -12 -17 0 -14 -2 -13 -9 5 -5 12 -12 22 -15 22 -4 0 -3 -5 1 -12
5 -8 2 -9 -9 -5 -10 4 -16 2 -14 -6 2 -13 -24 -14 -60 -3 -14 5 -23 3 -23 -3
0 -6 3 -10 8 -10 19 3 32 -2 32 -13 0 -9 -3 -9 -11 -1 -13 13 -69 -3 -69 -19
0 -6 -9 0 -21 13 -15 17 -19 19 -15 7 3 -10 2 -17 -2 -17 -19 3 -33 -2 -28
-10 3 -4 -8 -7 -25 -5 -20 3 -28 0 -23 -7 4 -8 0 -8 -14 0 -15 8 -23 8 -28 -1
-4 -6 -3 -8 4 -4 6 3 13 2 16 -3 3 -4 -4 -8 -17 -7 -13 1 -21 -4 -19 -12 2
-10 -2 -10 -17 -2 -24 12 -34 13 -27 1 6 -9 -40 -35 -64 -36 -8 -1 -14 -6 -13
-12 2 -7 -7 -10 -22 -7 -13 2 -27 -1 -31 -7 -5 -8 -2 -9 7 -4 11 6 12 5 2 -5
-15 -16 -53 -21 -50 -6 1 5 -7 11 -18 13 -15 2 -16 1 -5 -5 8 -4 16 -15 16
-24 1 -10 -2 -15 -7 -12 -5 3 -9 -1 -9 -8 0 -10 -3 -9 -10 2 -6 9 -5 17 3 22
8 5 9 8 1 8 -6 0 -18 -8 -25 -17 -9 -11 -10 -14 -2 -9 9 5 11 2 6 -10 -6 -15
-7 -15 -21 2 -12 16 -14 16 -9 2 6 -18 -21 -54 -32 -42 -3 4 0 9 7 11 6 3 12
9 12 15 0 7 -4 7 -13 0 -7 -6 -24 -9 -38 -6 -20 4 -21 3 -4 -4 19 -9 19 -9 -3
-21 -12 -6 -22 -18 -22 -26 0 -20 -17 -19 -30 3 -8 14 -9 13 -6 -10 3 -17 -1
-28 -11 -32 -23 -9 -24 -7 -12 17 11 20 11 21 -4 9 -9 -8 -17 -23 -19 -34 -2
-12 -11 -22 -22 -24 -10 -1 -28 -11 -40 -22 -37 -34 -97 -57 -81 -32 3 6 1 10
-5 10 -6 0 -10 -9 -8 -20 2 -10 -1 -19 -6 -19 -5 1 -13 -5 -18 -13 -8 -10 -9
-9 -4 4 3 10 0 20 -6 24 -7 4 -8 3 -4 -4 9 -16 -7 -15 -22 0 -7 7 -12 9 -12 6
0 -4 7 -14 16 -23 12 -12 14 -19 6 -27 -8 -8 -14 -5 -21 13 -7 18 -10 20 -10
6 -1 -10 -5 -16 -9 -13 -4 2 -14 -4 -21 -16 -7 -11 -8 -17 -2 -13 6 3 11 1 11
-4 0 -16 -11 -13 -35 9 -17 16 -22 17 -22 6 0 -8 5 -12 10 -9 6 4 8 -1 4 -11
-4 -9 -3 -14 2 -11 5 3 12 1 15 -4 7 -11 -13 -9 -31 2 -7 5 -13 5 -13 0 0 -4
-5 0 -11 10 -5 9 -8 21 -4 26 3 5 1 12 -4 15 -10 7 -8 -35 3 -53 4 -6 11 -9
16 -6 4 3 10 -1 13 -9 4 -10 0 -12 -15 -8 -14 3 -19 1 -14 -6 9 -14 -3 -15
-24 -2 -13 9 -13 10 0 10 12 1 11 3 -3 11 -9 6 -14 15 -11 21 4 7 2 8 -5 4 -7
-5 -9 -12 -3 -19 10 -15 10 -27 -3 -47 -7 -12 -6 -13 6 -3 13 10 16 10 16 -1
0 -19 -27 -13 -43 9 -16 22 -18 12 -4 -16 8 -15 7 -19 -5 -19 -8 0 -15 -5 -15
-12 0 -9 -3 -9 -12 0 -15 15 -28 15 -28 1 0 -5 5 -7 11 -3 7 4 10 1 7 -7 -3
-8 -12 -13 -21 -11 -8 1 -19 -3 -23 -9 -5 -8 -3 -9 7 -4 12 8 12 6 0 -8 -8
-10 -16 -15 -19 -12 -3 3 -16 -5 -29 -17 -13 -12 -23 -18 -23 -13 0 4 11 18
25 31 26 24 33 44 15 44 -6 0 -9 -3 -9 -7 3 -19 -2 -33 -12 -33 -5 0 -8 4 -5
8 2 4 -6 8 -20 8 -13 0 -24 -4 -24 -9 0 -5 7 -7 15 -4 8 4 17 2 20 -3 3 -4 0
-10 -5 -12 -6 -2 -13 -12 -15 -23 -2 -11 -4 -22 -4 -25 -1 -3 -5 2 -11 10 -6
9 -5 20 3 30 10 13 10 13 -4 3 -12 -10 -18 -10 -29 0 -12 10 -12 9 -1 -5 11
-15 11 -21 0 -35 -12 -16 -12 -17 2 -6 13 10 16 10 16 -2 0 -8 -4 -12 -8 -9
-4 2 -15 -4 -25 -13 -16 -16 -17 -16 -11 -1 4 12 2 15 -9 11 -7 -3 -14 -1 -15
3 -2 23 -8 46 -14 52 -3 4 -4 -6 -1 -22 3 -16 10 -34 16 -40 5 -5 10 -15 10
-21 -1 -5 -12 4 -27 20 -22 26 -24 26 -10 4 8 -14 12 -30 9 -36 -10 -15 -55
-38 -69 -35 -8 2 -10 -4 -6 -15 5 -15 3 -15 -10 2 -11 14 -12 22 -4 27 7 4 2
6 -10 5 -17 -1 -19 -4 -11 -14 7 -9 7 -13 -1 -13 -6 0 -11 -5 -11 -11 0 -8 5
-7 15 1 13 11 14 10 9 -4 -7 -19 -16 -20 -33 -3 -11 10 -11 8 -2 -13 11 -24
11 -24 -12 3 -19 22 -23 24 -22 10 0 -10 4 -24 9 -31 4 -7 2 -12 -7 -12 -12 0
-27 -10 -75 -51 -24 -20 -25 -1 -2 23 13 13 19 17 15 9 -5 -9 -4 -12 3 -7 19
11 14 25 -7 23 -11 0 -19 -6 -18 -12 1 -5 -3 -9 -9 -8 -6 1 -11 -5 -12 -13 -1
-7 -3 -20 -4 -28 -1 -8 -8 -12 -16 -8 -11 4 -13 2 -7 -9 7 -10 1 -9 -18 4 -16
10 -27 13 -27 6 0 -6 -7 -8 -16 -5 -8 3 -13 2 -9 -3 3 -5 2 -11 -2 -14 -10 -5
8 -1 28 7 10 5 16 2 16 -8 0 -8 -3 -15 -6 -14 -22 2 -31 -4 -24 -14 4 -7 -5
-5 -20 5 -15 10 -27 13 -27 7 0 -6 -4 -9 -8 -6 -13 8 -11 -28 2 -36 7 -5 6 -8
-3 -8 -8 0 -29 -11 -48 -26 -18 -14 -33 -22 -33 -18 0 4 -7 -1 -15 -12 -11
-13 -14 -14 -13 -4 2 8 7 18 11 21 5 3 2 9 -7 12 -9 4 -15 3 -15 -1 1 -4 1
-18 0 -32 -1 -22 -3 -23 -12 -7 -8 14 -14 15 -24 7 -10 -8 -16 -7 -24 7 -6 10
-11 13 -11 8 0 -6 5 -16 11 -22 12 -12 9 -45 -4 -43 -4 1 -19 -6 -33 -14 -30
-21 -32 -4 -1 18 22 16 22 16 -5 4 -20 -8 -28 -18 -28 -37 l0 -26 -21 25 c-17
21 -19 22 -10 3 16 -31 14 -47 -3 -31 -8 7 -12 16 -9 20 2 4 -4 5 -14 1 -16
-6 -17 -5 -3 13 14 18 14 18 -3 5 -18 -14 -18 -15 3 -31 19 -14 20 -18 6 -29
-8 -7 -20 -10 -26 -6 -5 3 -10 -1 -10 -10 0 -9 -5 -13 -10 -10 -6 4 -8 11 -5
16 4 5 1 17 -5 26 -10 15 -11 15 -6 1 6 -21 -18 -56 -28 -40 -4 7 -12 12 -19
12 -6 0 -2 -6 9 -14 13 -10 23 -11 31 -4 9 7 13 7 13 -1 0 -10 -13 -15 -33
-12 -4 0 -7 -6 -7 -14 0 -9 -6 -12 -17 -8 -11 4 -14 3 -9 -5 7 -11 -6 -17 -28
-13 -13 3 -36 -20 -30 -30 3 -5 -2 -6 -11 -3 -12 5 -13 9 -4 20 7 8 9 17 5 21
-3 3 -6 1 -6 -6 0 -7 -4 -10 -9 -7 -10 7 -9 -13 1 -29 4 -6 -2 -12 -13 -12
-11 -1 -17 2 -14 6 2 5 -3 15 -13 22 -15 13 -16 12 -3 -3 13 -17 11 -20 -16
-22 -7 -1 -12 -6 -10 -11 3 -13 27 -16 27 -2 0 5 3 8 6 4 3 -3 1 -14 -5 -24
-6 -11 -11 -13 -11 -5 0 7 -5 10 -10 7 -6 -4 -8 -11 -5 -16 3 -5 -1 -6 -9 -3
-10 4 -16 1 -16 -7 0 -7 -3 -9 -6 -6 -4 4 -2 12 3 19 7 8 7 21 2 33 -9 18 -9
18 -5 -3 3 -14 -1 -25 -10 -29 -8 -3 -11 -10 -8 -15 4 -6 -6 -21 -22 -33 -23
-18 -32 -21 -43 -12 -12 9 -13 9 -7 0 4 -8 2 -13 -4 -13 -6 0 -8 -5 -3 -12 4
-7 -5 -5 -20 5 -15 9 -27 13 -27 7 0 -5 5 -10 10 -10 21 0 9 -19 -19 -31 -16
-7 -27 -17 -25 -21 3 -4 -3 -5 -12 -1 -13 5 -15 3 -9 -7 5 -9 4 -11 -4 -6 -7
4 -19 -2 -30 -16 -11 -13 -22 -20 -26 -16 -8 7 25 43 46 50 8 3 5 7 -8 10 -12
3 -22 3 -21 -1 2 -18 -3 -32 -11 -27 -10 6 -34 -42 -26 -54 7 -11 -36 0 -55
14 -9 6 -8 2 3 -10 17 -21 17 -22 0 -28 -10 -4 -18 -6 -18 -5 0 1 -10 -3 -23
-10 -13 -7 -20 -17 -16 -24 5 -8 3 -8 -7 1 -11 10 -10 15 8 27 28 20 36 51 12
51 -14 0 -15 -3 -6 -14 9 -11 7 -17 -7 -28 -11 -7 -22 -11 -26 -9 -4 2 -5 -8
-3 -23 4 -26 4 -26 -9 -5 l-13 22 -12 -25 c-10 -22 -10 -24 3 -14 8 7 14 9 14
5 0 -13 -34 -34 -53 -35 -10 0 -16 -4 -13 -9 3 -5 -2 -8 -12 -7 -10 0 -16 -5
-14 -14 3 -12 1 -13 -10 -2 -11 11 -10 14 1 21 9 6 10 11 2 15 -6 4 -11 2 -11
-4 0 -6 -5 -8 -11 -4 -8 5 -8 1 0 -14 15 -29 14 -37 -5 -21 -13 10 -17 10 -25
-2 -5 -8 -6 -21 -3 -29 4 -11 2 -12 -7 -3 -6 6 -18 9 -27 6 -10 -4 -13 -2 -8
5 4 7 2 12 -4 12 -7 0 -9 -7 -6 -16 3 -9 6 -18 6 -21 0 -3 7 0 15 7 10 9 15 9
15 1 0 -10 -5 -12 -25 -11 -3 0 -18 -11 -33 -25 -23 -21 -29 -23 -38 -11 -8
12 -12 11 -24 -7 -12 -20 -12 -21 3 -8 10 7 17 9 17 5 0 -15 -40 -35 -53 -27
-7 4 -29 8 -50 9 -28 0 -34 -2 -23 -8 9 -5 21 -6 26 -3 6 3 10 0 10 -7 0 -10
3 -9 10 2 5 8 12 11 15 8 10 -10 -4 -28 -21 -28 -8 0 -13 -4 -10 -9 3 -5 -1
-14 -9 -21 -9 -7 -15 -8 -15 -2 0 5 -9 8 -21 5 -13 -4 -17 -8 -9 -13 8 -5 7
-9 -4 -13 -9 -4 -16 -2 -16 3 0 16 -42 6 -52 -13 -7 -14 -7 -17 1 -13 6 4 11
2 11 -3 0 -17 -21 -13 -36 7 -10 12 -13 13 -9 2 4 -11 -1 -16 -16 -17 -18 -2
-19 0 -7 15 12 16 11 16 -6 2 -18 -14 -18 -15 3 -28 27 -19 27 -32 -1 -32 -17
0 -19 3 -10 9 11 6 10 10 -4 15 -9 3 -19 4 -22 1 -3 -3 1 -5 8 -5 7 0 10 -3 6
-7 -4 -5 -11 -8 -15 -8 -4 0 -15 -7 -24 -17 -9 -9 -22 -18 -29 -21 -7 -2 -10
-7 -7 -11 3 -3 17 4 31 17 24 22 52 27 66 11 4 -4 0 -5 -9 -1 -10 3 -26 -3
-38 -14 -12 -11 -21 -16 -21 -12 0 4 -5 1 -10 -7 -5 -8 -15 -15 -22 -15 -7 -1
-12 -7 -10 -14 1 -7 -2 -9 -8 -6 -6 4 -18 -1 -26 -11 -9 -11 -13 -13 -9 -6 3
6 1 12 -4 12 -6 0 -11 -3 -11 -7 -1 -24 -18 -35 -38 -24 -18 9 -23 8 -32 -9
-9 -16 -8 -18 5 -14 8 3 12 11 8 17 -4 6 -1 7 7 2 10 -6 10 -11 -3 -20 -9 -7
-15 -14 -12 -16 4 -4 -17 -8 -57 -10 -11 0 -15 -6 -11 -16 4 -11 2 -14 -5 -9
-6 3 -14 1 -19 -7 -9 -15 -63 -51 -78 -52 -5 -1 -9 -7 -7 -15 2 -10 0 -11 -11
-2 -8 7 -17 9 -20 5 -4 -3 -7 -2 -7 4 0 6 -7 13 -14 16 -10 4 -13 1 -9 -9 5
-13 17 -18 37 -15 5 1 4 -5 -4 -13 -14 -18 -35 -22 -24 -4 4 7 3 8 -4 4 -7 -4
-12 -2 -12 3 0 6 -5 11 -10 11 -6 0 -3 -11 6 -25 9 -15 13 -25 8 -24 -21 4
-35 -2 -29 -11 3 -6 -1 -7 -10 -4 -9 4 -15 3 -13 -2 2 -5 0 -10 -5 -11 -18 -7
-27 -2 -28 15 0 11 -2 12 -6 4 -3 -7 1 -20 8 -30 7 -9 10 -14 5 -10 -11 9 -39
-19 -31 -32 4 -6 -4 -5 -19 1 -14 7 -23 15 -21 20 3 4 0 11 -6 15 -8 4 -9 3
-5 -4 4 -7 1 -12 -6 -12 -8 0 -6 -5 5 -11 22 -13 22 -30 0 -22 -13 5 -15 2
-10 -11 4 -10 3 -15 -3 -11 -6 3 -10 1 -10 -4 0 -6 -5 -11 -11 -11 -5 0 -7 4
-4 10 3 5 2 18 -4 27 -8 14 -9 10 -6 -17 3 -26 -1 -41 -17 -57 -23 -24 -48
-30 -48 -12 0 6 7 9 15 6 8 -4 16 -3 19 1 3 4 -4 9 -15 9 -12 1 -25 -9 -35
-28 -11 -22 -20 -29 -32 -24 -14 5 -15 4 -4 -7 11 -11 17 -9 33 11 13 16 19
19 19 8 0 -8 -7 -18 -16 -21 -9 -3 -12 -11 -8 -18 4 -7 4 -10 -1 -6 -9 8 -42
-32 -37 -45 1 -5 -2 -6 -7 -3 -12 8 -23 -22 -14 -37 4 -7 -5 -4 -20 6 -18 12
-26 13 -25 5 2 -7 -3 -12 -9 -11 -7 2 -13 -2 -13 -8 0 -6 7 -9 15 -6 20 8 29
-11 14 -29 -10 -13 -14 -12 -31 6 -10 11 -22 20 -25 20 -3 0 2 -9 12 -20 14
-16 16 -23 7 -32 -7 -7 -12 -16 -12 -22 0 -5 7 -1 15 10 8 10 15 14 15 7 0 -6
-5 -15 -10 -18 -6 -4 -8 -10 -5 -15 3 -5 0 -12 -6 -16 -8 -4 -9 -3 -5 4 4 7 3
12 -2 12 -6 0 -13 -7 -16 -16 -5 -14 -9 -14 -24 -3 -15 13 -16 12 -4 -3 8 -9
21 -14 30 -11 13 4 14 3 4 -5 -8 -5 -14 -13 -15 -18 -1 -5 -5 -8 -9 -7 -5 2
-8 -2 -8 -8 0 -5 -5 -7 -12 -3 -7 4 -8 3 -4 -4 4 -6 12 -10 19 -8 7 1 9 1 4
-1 -4 -3 -5 -9 -1 -14 3 -5 0 -9 -6 -9 -7 0 -10 -7 -6 -15 4 -13 1 -12 -22 2
l-27 17 22 -22 c22 -22 22 -23 5 -60 -9 -20 -24 -43 -32 -50 -13 -11 -12 -11
7 -3 33 17 38 13 13 -9 -21 -18 -21 -20 -5 -20 15 0 16 -3 7 -12 -8 -8 -15 -8
-27 2 -10 8 -15 9 -15 1 0 -6 5 -11 11 -11 5 0 7 -4 4 -10 -3 -5 0 -7 8 -4 8
3 18 0 23 -7 4 -8 3 -10 -5 -5 -8 5 -10 0 -7 -20 3 -15 0 -34 -6 -41 -8 -9 -7
-13 1 -13 7 0 9 -5 6 -10 -4 -6 -10 -8 -15 -5 -5 3 -11 1 -15 -4 -3 -6 3 -8
15 -6 12 2 20 -1 20 -10 0 -9 -7 -12 -18 -9 -10 3 -8 0 5 -8 22 -13 22 -15 6
-37 -9 -14 -11 -21 -5 -17 8 5 12 -2 12 -19 0 -16 -4 -24 -11 -19 -8 5 -8 1 0
-14 6 -11 16 -23 23 -25 10 -4 10 -6 1 -6 -7 -1 -13 -6 -13 -12 0 -5 5 -7 12
-3 7 4 8 3 4 -5 -6 -9 -12 -9 -24 1 -15 12 -15 11 -4 -4 9 -12 10 -22 4 -35
-7 -13 -6 -24 3 -37 8 -10 11 -24 9 -31 -3 -7 0 -16 6 -20 13 -8 6 41 -9 59
-8 9 -7 18 2 30 12 16 13 15 14 -11 1 -15 4 -46 8 -67 l7 -40 -23 16 c-13 9
-23 23 -23 31 1 10 -4 13 -14 9 -12 -4 -5 -15 29 -45 24 -22 38 -36 32 -33 -7
4 -21 2 -30 -4 -14 -8 -14 -10 -3 -9 29 3 41 -1 35 -11 -3 -5 -13 -7 -23 -4
-9 4 -3 -4 13 -15 l30 -22 -30 6 c-29 6 -29 6 -7 -8 l23 -13 -23 -12 -23 -12
25 6 c14 4 22 3 18 -1 -4 -4 -3 -17 3 -28 7 -11 7 -17 1 -13 -13 8 -35 -20
-29 -36 4 -8 6 -7 6 5 1 9 8 17 17 17 8 0 12 -5 9 -10 -4 -6 -2 -17 5 -25 8
-10 8 -15 -1 -20 -8 -6 -7 -10 2 -17 10 -7 9 -8 -6 -4 -17 5 -18 4 -5 -6 18
-16 25 -48 10 -48 -6 0 -9 4 -5 9 3 5 0 13 -6 17 -8 4 -9 3 -5 -4 4 -7 1 -12
-6 -12 -7 -1 -1 -7 14 -16 24 -13 26 -17 16 -34 -9 -14 -15 -16 -26 -8 -7 6
-11 16 -8 23 2 6 -1 12 -8 12 -6 0 -12 -8 -12 -18 0 -10 5 -17 10 -16 6 1 10
-10 10 -25 -1 -15 2 -25 7 -22 4 2 6 12 3 22 -5 14 -2 13 12 -3 13 -16 16 -17
11 -3 -3 10 -1 20 5 24 6 4 8 3 4 -4 -3 -6 -1 -14 5 -18 8 -4 7 -9 -2 -15 -11
-7 -12 -12 -2 -28 8 -13 9 -22 3 -26 -6 -4 -7 -12 -3 -18 9 -14 14 -92 6 -84
-3 4 -6 23 -7 44 -1 25 -6 38 -15 38 -8 0 -15 -6 -17 -13 -1 -7 0 -8 3 -2 8
17 22 11 20 -10 -1 -11 -5 -20 -9 -20 -4 0 -8 -5 -8 -11 0 -5 5 -7 11 -3 8 5
10 -1 7 -19 -3 -17 -1 -24 8 -20 6 2 15 -1 20 -8 4 -8 3 -10 -4 -5 -7 4 -12 2
-12 -4 0 -6 -5 -8 -12 -4 -7 5 -8 3 -4 -5 5 -7 14 -10 22 -7 11 4 12 1 5 -13
-7 -12 -6 -22 1 -29 9 -9 9 -12 0 -12 -7 0 -12 4 -12 10 0 5 -7 7 -17 3 -14
-5 -13 -8 5 -14 19 -7 27 -26 23 -52 -6 -33 0 -82 11 -92 10 -11 -4 -44 -16
-39 -7 3 -13 -1 -13 -9 0 -9 10 -13 26 -11 16 2 19 1 7 -2 -13 -4 -15 -8 -7
-13 6 -4 13 -17 16 -29 2 -12 7 -27 11 -34 4 -6 3 -8 -3 -5 -6 4 -14 -1 -18
-11 -8 -21 -5 -28 11 -24 7 1 16 -3 20 -9 5 -8 3 -9 -6 -4 -10 6 -12 4 -7 -7
3 -9 0 -21 -6 -28 -10 -10 -8 -12 6 -7 10 4 16 3 12 -2 -3 -5 1 -12 7 -14 10
-4 10 -6 1 -6 -7 -1 -13 -6 -13 -12 0 -5 5 -7 12 -3 8 5 8 3 2 -7 -11 -17 -13
-70 -3 -63 4 2 10 0 14 -6 4 -6 12 -7 18 -3 9 5 9 3 0 -8 -9 -11 -8 -20 2 -39
16 -28 20 -53 5 -30 -8 13 -10 12 -10 -2 0 -16 9 -21 30 -20 3 0 5 -16 5 -36
1 -25 5 -36 14 -34 7 1 10 -2 7 -7 -4 -5 -2 -12 2 -15 5 -3 7 -17 4 -31 -2
-15 0 -25 7 -25 6 0 11 -5 11 -10 0 -7 -7 -7 -21 0 -11 7 -23 9 -27 6 -3 -3 1
-6 8 -6 9 0 8 -5 -4 -19 -12 -13 -14 -21 -6 -26 6 -4 9 -1 8 7 -2 7 3 12 10
10 8 -1 11 2 7 8 -3 5 -2 10 3 10 19 0 21 -15 6 -39 l-15 -26 20 24 c12 12 19
27 16 31 -3 5 -1 11 4 14 4 3 8 -4 7 -17 0 -12 4 -21 11 -20 7 2 10 -6 8 -17
-2 -11 3 -24 12 -28 11 -7 12 -11 4 -16 -6 -4 -11 -2 -11 5 0 7 -2 10 -5 7
-10 -9 7 -38 21 -38 12 0 13 -4 3 -22 -11 -20 -10 -21 3 -10 15 12 23 5 33
-30 2 -5 3 -9 5 -10 11 -15 15 -68 6 -93 l-7 -20 13 20 c16 24 40 31 32 10 -4
-8 -10 -15 -15 -15 -5 0 -9 -5 -9 -11 0 -5 4 -8 9 -5 5 4 11 3 14 -1 2 -5 2
-3 1 4 -2 7 2 15 7 19 7 4 10 -5 9 -22 -1 -16 -2 -35 -1 -41 1 -18 18 -16 18
2 0 8 -4 12 -9 9 -4 -3 -5 2 -1 11 4 13 8 14 14 4 4 -7 5 -17 3 -21 -3 -4 0
-8 7 -8 10 0 10 -3 1 -12 -7 -7 -12 -17 -12 -22 0 -6 4 -5 8 2 12 18 37 6 39
-19 1 -12 -7 -23 -20 -29 -16 -6 -18 -9 -5 -9 9 -1 24 9 32 21 18 26 21 17 5
-14 -9 -16 -8 -19 3 -12 19 12 39 14 32 3 -3 -5 -10 -7 -15 -4 -5 4 -9 1 -9
-4 0 -6 9 -11 19 -11 21 0 33 -22 25 -47 -3 -10 2 -7 10 7 l16 25 -4 -25 c-5
-31 38 -89 48 -64 4 10 2 12 -6 8 -7 -5 -8 -3 -3 6 6 9 4 11 -5 5 -9 -6 -11
-4 -6 4 6 9 13 8 28 -6 19 -17 19 -18 -2 -35 -12 -10 -17 -18 -12 -18 6 0 14
5 17 10 9 15 42 12 49 -5 3 -8 11 -14 18 -13 7 2 13 -4 14 -12 3 -36 5 -40 15
-40 8 0 8 4 0 14 -9 11 -9 16 0 22 8 4 9 3 5 -4 -4 -7 -1 -12 9 -12 9 0 13 -4
10 -10 -3 -5 1 -10 9 -10 9 0 16 -4 16 -9 0 -4 -12 -7 -28 -5 -16 2 -19 1 -7
-2 11 -4 26 -11 34 -17 17 -14 43 -18 35 -6 -3 5 -9 7 -14 4 -5 -3 -11 -1 -15
5 -9 15 21 12 34 -3 6 -8 7 -18 3 -22 -4 -5 1 -5 11 -2 11 4 25 -1 36 -12 11
-11 23 -16 27 -13 4 4 3 1 -1 -7 -6 -10 -4 -13 7 -9 8 4 15 0 15 -8 0 -7 -4
-11 -9 -8 -10 6 -11 -10 -1 -20 4 -3 13 4 21 16 13 23 13 23 9 -5 -4 -24 0
-31 28 -44 19 -9 31 -21 28 -28 -7 -19 13 -27 27 -10 9 11 3 18 -36 38 -40 20
-44 25 -26 29 13 4 20 2 19 -6 -1 -6 4 -10 11 -8 6 1 12 -3 12 -9 0 -5 5 -7
10 -4 6 3 10 1 10 -4 0 -6 7 -11 16 -11 11 0 14 -5 10 -16 -8 -22 29 -48 69
-51 44 -2 45 -2 45 -11 0 -5 -7 -9 -15 -9 -8 0 -11 5 -8 10 3 6 1 7 -5 3 -6
-4 -8 -14 -5 -22 4 -10 8 -12 13 -5 4 8 13 5 25 -9 10 -11 22 -17 28 -13 6 4
8 0 4 -10 -3 -9 -2 -19 2 -21 5 -3 8 5 7 17 0 12 -6 22 -13 22 -7 0 -18 6 -25
14 -11 12 -10 12 2 5 14 -8 19 -10 39 -13 12 -2 20 -48 9 -59 -5 -5 -2 -9 6
-9 8 0 13 4 10 9 -3 4 -1 8 5 8 20 0 20 -18 0 -46 l-21 -29 26 28 c22 24 28
26 39 15 8 -7 16 -20 20 -28 4 -12 6 -12 6 2 1 10 9 16 20 15 11 0 17 -5 15
-9 -3 -4 2 -8 11 -8 9 0 13 -5 10 -10 -5 -8 -11 -7 -21 1 -8 6 -17 9 -20 6
-10 -10 32 -26 46 -17 21 13 53 -8 47 -31 -3 -10 0 -22 5 -26 7 -3 8 -1 4 5
-5 8 1 11 18 10 13 -1 22 -6 20 -10 -3 -4 4 -8 16 -8 14 0 19 -4 14 -12 -5 -7
-2 -9 9 -5 11 4 14 2 10 -9 -3 -8 1 -14 11 -14 9 0 16 5 16 12 0 6 3 9 6 6 3
-4 -2 -17 -11 -31 -11 -17 -13 -27 -5 -32 6 -3 10 -3 9 2 -3 19 2 33 11 33 6
0 10 -7 8 -16 -2 -11 5 -18 22 -20 18 -3 21 -2 10 5 -8 5 -18 7 -24 4 -5 -3
-6 -1 -2 5 5 8 14 8 32 0 23 -11 24 -13 9 -24 -9 -7 -23 -10 -31 -7 -8 3 -14
0 -14 -5 0 -12 29 -9 58 7 23 12 48 -9 39 -34 -4 -8 -1 -17 5 -21 6 -4 8 -3 5
3 -4 6 0 13 8 17 8 3 15 1 15 -5 0 -6 5 -7 12 -3 7 5 8 3 3 -6 -6 -10 -2 -12
15 -7 l22 6 -23 -27 c-13 -14 -17 -22 -9 -16 25 18 59 14 65 -7 4 -10 11 -19
16 -19 6 0 7 5 3 12 -4 7 -3 8 5 4 6 -4 9 -12 6 -17 -8 -12 -32 -12 -38 1 -3
6 -4 5 -3 -2 3 -13 25 -15 55 -7 8 2 17 -4 19 -15 2 -12 0 -16 -7 -11 -6 3 -9
11 -6 16 10 15 -2 10 -16 -8 -8 -9 -9 -14 -3 -10 7 4 15 -1 18 -10 6 -14 9
-15 16 -3 11 18 37 21 37 4 0 -8 -6 -14 -13 -14 -7 0 -16 -5 -20 -12 -5 -8 -2
-9 12 -4 29 13 65 15 58 5 -3 -5 0 -9 6 -9 6 0 18 -7 27 -15 8 -8 18 -13 23
-10 5 3 11 -4 15 -15 4 -13 15 -20 31 -20 14 0 22 -4 19 -10 -6 -9 8 -14 28
-11 5 1 6 -3 2 -9 -3 -5 1 -10 10 -10 9 0 13 -5 9 -11 -4 -8 -9 -8 -17 0 -6 6
-16 11 -22 11 -5 0 -2 -7 9 -15 12 -9 24 -11 35 -5 19 10 47 -3 38 -17 -7 -12
36 -56 46 -47 3 3 3 13 1 22 -4 12 -2 12 7 -2 10 -16 9 -21 -6 -32 -10 -7 -23
-11 -29 -7 -6 3 -7 2 -3 -2 11 -12 37 -15 37 -4 0 5 6 8 13 7 6 -2 11 3 9 10
-1 6 2 12 8 12 5 0 10 -10 10 -22 0 -19 2 -20 10 -8 7 11 10 11 10 2 0 -7 4
-10 10 -7 6 4 7 -1 3 -11 -5 -14 -3 -15 16 -5 17 9 21 9 19 -1 -2 -7 4 -12 13
-12 15 1 19 -9 20 -51 0 -15 2 -17 9 -6 4 8 6 21 3 30 -4 14 -4 14 6 1 6 -8 8
-22 5 -32 -2 -9 1 -20 7 -24 8 -4 9 -3 5 4 -4 7 -3 19 2 28 8 15 10 15 15 0 5
-11 3 -15 -5 -10 -7 4 -8 3 -4 -5 4 -6 13 -11 19 -10 24 3 37 -1 37 -12 0 -5
-4 -7 -10 -4 -5 3 -18 1 -27 -5 -15 -9 -14 -10 6 -4 18 5 22 3 15 -7 -6 -12
-5 -12 8 -1 13 10 22 11 37 2 27 -14 26 -16 -6 -35 -26 -15 -16 -14 24 2 12 5
14 3 8 -7 -5 -8 -4 -11 3 -6 6 4 8 14 5 24 -4 13 -2 13 10 -3 9 -11 17 -16 17
-12 0 5 7 2 15 -6 8 -9 20 -17 27 -20 11 -3 11 -9 0 -26 -7 -11 -9 -20 -5 -19
5 2 9 -1 11 -7 2 -5 10 -18 19 -27 8 -9 12 -23 8 -30 -6 -10 -5 -10 5 -1 11
10 10 16 -4 32 -17 18 -17 19 1 24 17 4 17 5 0 6 -11 1 -15 6 -11 13 5 7 2 8
-7 3 -8 -5 -10 -4 -6 0 10 12 39 16 32 5 -5 -8 19 -27 38 -29 4 -1 8 -4 9 -8
1 -5 10 -17 20 -27 9 -10 15 -23 12 -28 -8 -13 6 -29 19 -21 7 4 25 8 42 9 28
2 28 2 9 -9 -19 -11 -19 -13 -3 -29 15 -14 18 -14 23 -2 3 8 2 12 -3 9 -5 -3
-12 -1 -16 5 -10 15 25 12 41 -4 16 -17 19 -46 4 -46 -5 0 -10 -6 -10 -12 1
-7 9 -2 20 11 11 12 17 28 13 35 -3 6 3 3 15 -8 12 -10 19 -22 17 -27 -3 -4 4
-14 15 -22 11 -7 17 -17 13 -21 -4 -4 1 -4 11 0 15 6 17 4 11 -6 -6 -9 -4 -11
5 -5 10 6 9 11 -5 21 -10 7 -23 15 -29 17 -6 2 -9 7 -6 10 3 3 19 -4 34 -17
26 -20 28 -25 16 -47 l-13 -24 20 20 c11 11 18 25 16 30 -3 6 4 0 15 -12 11
-12 21 -21 23 -20 3 1 -2 -4 -10 -10 -21 -18 -36 -16 -21 2 7 9 11 17 9 20 -3
2 -10 -5 -17 -15 -10 -16 -9 -21 9 -31 15 -8 19 -8 15 0 -11 18 5 13 21 -6 13
-16 13 -16 3 5 -10 21 -9 23 7 20 12 -3 17 -11 16 -26 -2 -13 2 -21 10 -19 7
1 11 -7 10 -18 -1 -19 -1 -19 11 -2 14 19 46 23 46 6 0 -5 6 -7 13 -4 6 4 3
-1 -7 -9 -25 -20 -42 -21 -26 -1 7 8 10 15 7 15 -2 0 -10 -6 -16 -14 -10 -12
-8 -17 10 -26 14 -8 19 -8 15 -1 -4 6 -3 11 3 11 5 0 11 -3 14 -7 2 -5 2 -2 1
5 -2 6 2 12 9 12 22 0 57 -31 57 -51 0 -20 10 -25 25 -10 6 6 15 4 22 -4 8 -9
9 -16 3 -20 -13 -8 -13 -25 1 -25 5 0 7 5 3 12 -5 7 -2 9 9 5 12 -4 15 -1 11
11 -5 15 -4 15 6 -1 6 -9 8 -22 4 -29 -4 -7 -3 -8 4 -4 7 4 12 2 12 -3 0 -6 5
-11 12 -11 9 0 9 3 0 12 -15 15 -16 28 -2 28 6 0 9 -4 8 -9 -2 -5 6 -17 17
-26 11 -9 15 -14 10 -11 -6 2 -17 1 -25 -4 -11 -7 -8 -9 10 -8 14 1 29 7 33
13 6 6 7 3 4 -7 -6 -17 19 -46 30 -34 3 3 1 6 -5 6 -7 0 -12 5 -12 12 0 6 9 3
21 -8 12 -10 24 -18 27 -16 4 2 8 -2 10 -8 3 -8 -3 -10 -18 -5 -16 5 -20 4
-15 -5 4 -6 21 -9 41 -7 19 3 31 1 29 -4 -7 -11 33 -32 45 -24 6 4 10 3 9 -2
-3 -18 1 -36 7 -30 4 3 16 1 28 -5 11 -7 25 -11 29 -10 5 1 6 -2 3 -7 -4 -5 1
-14 11 -19 15 -9 15 -12 3 -28 -13 -15 -13 -16 -1 -9 10 6 13 4 9 -6 -4 -10 1
-15 15 -17 16 -1 18 1 8 7 -8 5 -10 14 -6 21 6 9 4 11 -5 5 -9 -5 -11 -4 -6 4
6 8 12 9 20 2 7 -6 16 -8 20 -4 4 4 4 -1 0 -11 -5 -14 -4 -17 4 -12 7 4 12 2
12 -4 0 -6 4 -9 9 -6 5 3 20 -3 33 -14 14 -11 29 -16 32 -12 4 4 6 0 4 -8 -2
-8 3 -14 10 -12 8 1 11 -2 7 -8 -3 -5 3 -10 14 -10 12 0 21 -4 21 -8 0 -5 11
-15 25 -22 19 -10 23 -19 20 -39 l-5 -26 10 24 c10 22 12 23 28 7 10 -9 24
-16 30 -16 7 0 12 -5 12 -10 0 -7 -6 -7 -18 -1 -15 8 -18 5 -19 -17 0 -15 1
-19 4 -10 6 24 19 23 26 -3 5 -18 8 -19 28 -9 18 10 21 10 16 -2 -4 -11 1 -14
19 -10 19 3 26 -1 34 -23 6 -15 7 -31 4 -37 -4 -7 -2 -8 5 -4 7 4 9 17 6 29
-4 12 -3 17 2 12 4 -6 20 -16 35 -24 23 -12 26 -17 15 -29 -10 -13 -9 -14 11
-3 18 10 22 9 22 -4 0 -8 -5 -14 -11 -13 -6 2 -14 -4 -16 -12 -4 -13 -3 -13 6
0 10 13 11 13 11 0 1 -9 6 -6 14 9 11 19 14 21 19 7 4 -10 13 -13 24 -9 15 5
15 3 -2 -10 -12 -9 -22 -11 -26 -5 -3 5 -9 0 -12 -12 -5 -20 -4 -20 16 -7 35
22 57 28 54 14 -1 -7 6 -11 15 -11 11 1 15 -5 12 -19 -2 -11 1 -27 7 -36 8
-13 9 -12 4 5 -3 13 1 26 12 35 11 9 14 10 9 2 -4 -8 -1 -13 8 -13 18 0 21
-21 5 -37 -8 -8 -8 -13 0 -18 6 -3 10 -1 9 5 -2 6 7 19 20 27 19 13 22 13 20
2 -2 -9 5 -14 20 -13 12 1 22 -3 22 -8 0 -6 -7 -8 -15 -4 -8 3 -15 1 -15 -5 0
-6 10 -10 23 -9 40 4 47 0 48 -22 1 -22 1 -22 9 2 4 14 8 19 9 12 1 -7 5 -10
11 -7 6 3 10 1 10 -6 0 -8 4 -8 15 1 12 10 16 9 21 -3 3 -9 13 -16 22 -16 52
-3 70 -6 66 -12 -2 -4 11 -7 29 -7 42 0 60 -5 70 -17 4 -6 10 -5 16 4 6 9 10
10 15 2 5 -8 33 -10 82 -7 41 2 72 0 69 -4 -3 -5 -14 -7 -25 -5 -25 5 -34 -10
-20 -32 10 -16 10 -15 5 4 -5 19 -3 21 20 17 16 -3 27 1 31 9 2 7 17 12 34 11
17 -1 30 3 30 9 0 8 3 7 9 -1 12 -19 15 -19 36 -2 11 9 16 10 11 2 -10 -16 -1
-15 34 3 16 8 31 11 34 6 3 -4 17 -6 31 -4 14 3 22 10 18 16 -4 6 -1 7 7 2 10
-6 9 -11 -5 -22 -11 -7 -13 -13 -6 -13 7 0 9 -5 5 -12 -4 -7 -3 -8 5 -4 6 4 9
11 6 16 -9 15 15 22 31 9 12 -10 17 -10 27 1 7 7 7 10 1 7 -6 -4 -20 0 -30 8
-18 14 -18 14 8 15 14 0 28 3 31 8 2 4 3 2 1 -4 -1 -6 2 -17 7 -25 7 -11 9
-11 9 -1 0 8 5 10 13 6 6 -4 9 -4 5 1 -13 14 11 44 32 40 11 -2 20 1 20 6 0 6
5 7 10 4 6 -3 10 -2 10 4 0 6 7 7 17 4 11 -4 14 -3 9 5 -11 18 5 14 19 -5 7
-9 17 -13 23 -9 15 9 16 26 1 26 -5 0 -7 -4 -4 -10 3 -5 1 -10 -4 -10 -19 0
-12 28 9 33 11 3 20 2 20 -3 0 -4 7 -10 15 -14 8 -3 14 0 12 7 -1 7 6 11 16
11 12 -1 15 2 8 10 -6 7 -3 16 7 26 14 13 15 12 9 -4 -6 -16 -5 -17 8 -6 8 7
13 16 10 20 -3 4 3 7 13 6 9 0 16 4 15 11 -2 7 8 10 25 8 15 -1 35 3 46 10 10
8 24 11 31 9 7 -3 15 -1 18 3 9 14 -38 10 -55 -4 -12 -10 -15 -10 -15 2 0 8 3
13 5 10 3 -3 14 2 24 12 10 9 18 11 18 5 0 -6 7 -9 15 -6 8 4 15 14 15 23 0
14 2 14 10 1 9 -14 15 -6 10 15 -1 5 9 1 21 -10 12 -11 19 -14 14 -6 -5 9 -3
12 6 9 8 -3 13 -12 11 -19 -2 -8 0 -10 4 -6 18 18 11 35 -12 32 -13 -1 -24 2
-24 6 0 5 9 9 20 9 13 0 24 10 30 25 5 14 11 25 14 25 8 0 1 -35 -9 -43 -6 -5
-4 -7 5 -4 8 2 14 10 12 16 -3 15 11 14 28 -2 8 -6 7 -3 -3 9 -9 11 -17 25
-17 30 0 5 4 3 9 -5 7 -11 11 -9 21 8 9 18 14 20 26 10 12 -10 17 -9 27 1 10
10 9 12 -5 7 -22 -8 -24 9 -2 17 8 3 12 11 8 17 -4 8 -3 9 5 5 6 -4 9 -11 6
-15 -2 -5 2 -17 10 -27 15 -19 15 -19 8 0 -5 15 -3 17 8 11 12 -8 12 -6 0 9
-12 15 -12 19 3 34 17 16 18 16 11 -8 -3 -14 -3 -20 2 -14 4 6 17 16 28 23 15
9 16 11 3 7 -10 -3 -18 -1 -18 4 0 6 5 10 11 10 5 0 7 5 4 10 -9 15 1 12 18
-5 13 -13 16 -13 21 1 3 8 2 12 -3 9 -5 -3 -12 -1 -16 5 -4 6 6 10 24 10 17 0
31 -5 31 -12 0 -6 2 -9 5 -6 9 8 -6 38 -16 32 -5 -3 -9 0 -9 5 0 10 13 14 26
9 3 -2 10 5 15 15 6 9 14 15 19 12 5 -3 18 -1 28 4 12 6 23 7 31 1 6 -6 5 -2
-3 7 -12 13 -18 14 -30 3 -9 -7 -16 -8 -16 -4 0 5 9 15 20 22 11 7 20 8 20 2
0 -5 7 -7 15 -4 8 4 12 10 9 15 -3 5 0 9 6 9 6 0 8 4 5 10 -6 9 16 4 40 -9 17
-9 71 -11 55 -1 -7 4 -21 7 -31 5 -9 -2 -24 4 -33 14 -14 15 -14 17 4 17 10 0
17 -3 15 -6 -2 -4 2 -7 9 -7 8 0 11 8 9 18 -3 9 0 20 7 24 7 4 11 1 9 -6 -3
-28 1 -39 18 -39 15 0 15 1 -2 13 -13 10 -15 16 -6 21 6 4 8 12 5 18 -4 7 -2
8 4 4 7 -4 12 -2 12 3 0 6 4 11 10 11 5 0 7 -7 4 -15 -4 -8 -2 -15 4 -15 6 0
9 11 8 25 -2 13 2 23 8 22 6 -1 10 5 8 13 -2 8 0 12 4 8 4 -4 14 -2 22 4 21
18 52 20 70 6 11 -9 10 -5 -3 17 l-19 30 23 -20 24 -20 -13 24 c-8 15 -8 21
-1 17 6 -4 14 -1 17 8 3 9 12 12 21 9 11 -4 14 -2 9 5 -4 7 -1 12 9 12 9 0 13
-4 10 -10 -3 -5 -1 -18 5 -27 10 -16 10 -15 5 4 -4 16 0 25 15 33 11 6 20 15
20 21 0 6 -7 3 -16 -5 -14 -15 -34 -14 -34 1 0 4 3 3 6 0 4 -3 18 3 32 13 13
11 35 20 47 20 12 0 29 7 36 17 13 15 12 15 -7 5 -16 -9 -21 -8 -21 3 0 8 5
11 10 8 6 -3 17 3 25 13 10 12 13 14 9 4 -3 -11 2 -16 17 -17 11 0 15 1 9 4
-7 3 -13 9 -13 15 0 6 7 7 16 4 11 -4 15 -2 11 6 -2 7 3 20 11 28 14 13 15 13
10 0 -3 -8 -1 -24 4 -35 8 -18 8 -18 4 3 -3 15 1 22 12 22 15 0 15 2 2 10 -11
7 -11 10 -2 10 7 0 10 5 6 12 -4 7 -3 8 4 4 6 -4 20 2 30 12 14 14 24 17 36
10 9 -5 13 -14 10 -20 -5 -7 -2 -8 5 -4 9 6 8 13 -6 28 -18 21 -18 21 7 8 l25
-13 -19 22 c-17 18 -17 21 -3 15 10 -4 17 -1 17 6 0 9 4 9 16 -1 24 -20 45
-21 35 -1 -11 22 -3 42 17 42 12 0 13 -3 4 -12 -7 -7 -12 -17 -12 -22 0 -6 7
0 16 12 8 12 12 27 9 32 -3 6 -1 10 5 10 6 0 8 5 5 10 -4 6 -3 9 2 8 17 -4 53
14 47 24 -4 6 -2 8 4 4 6 -3 17 3 25 14 14 21 15 21 25 -9 6 -17 13 -31 16
-31 3 0 3 6 0 13 -6 18 22 72 38 72 7 1 12 7 10 14 -1 7 2 10 7 7 5 -3 14 1
21 9 14 17 73 48 65 34 -4 -5 -1 -9 4 -9 6 0 11 9 11 20 0 19 1 19 23 -2 12
-13 21 -27 19 -31 -1 -5 3 -5 9 -2 8 5 8 10 0 18 -15 15 -14 30 1 21 7 -4 8
-3 4 5 -6 9 -11 9 -21 1 -13 -11 -13 -8 -6 29 1 2 13 -4 27 -14 14 -9 28 -14
32 -11 3 3 0 6 -8 6 -10 0 -10 3 0 15 14 16 34 10 24 -7 -4 -7 -2 -8 5 -4 9 6
9 11 1 21 -7 9 -6 16 4 24 11 10 16 8 24 -6 6 -10 13 -16 15 -13 3 3 -1 14 -9
24 -14 19 -14 19 -39 -4 -14 -13 -25 -19 -25 -13 0 6 7 14 16 17 9 3 12 11 8
18 -4 7 -3 10 1 5 5 -4 19 0 32 8 13 9 23 11 23 6 0 -5 -5 -11 -11 -13 -7 -2
-6 -8 4 -16 12 -10 15 -10 14 0 -1 34 4 48 18 48 8 0 15 5 15 10 0 7 6 7 18 1
10 -5 24 -6 31 -2 10 6 9 10 -4 14 -10 5 -14 3 -9 -5 5 -7 3 -8 -5 -3 -22 13
4 28 27 16 29 -16 39 -14 17 3 -16 12 -17 16 -6 30 7 9 17 14 21 11 4 -3 22 9
39 27 17 17 31 27 31 21 0 -6 7 -14 16 -17 14 -5 15 -4 5 8 -9 11 -8 15 4 19
8 4 14 3 12 -1 -2 -7 6 -12 18 -12 3 0 0 10 -6 23 -11 20 -11 21 4 8 14 -11
20 -11 32 -1 8 7 15 18 15 24 0 6 -7 2 -15 -8 -8 -11 -18 -17 -21 -13 -11 11
26 40 39 30 14 -11 37 -11 37 0 0 4 0 10 0 13 0 4 -7 1 -15 -6 -8 -7 -15 -8
-15 -3 0 5 12 15 26 21 16 8 22 17 18 25 -4 6 -3 9 1 4 5 -4 20 3 33 15 14 13
22 18 18 11 -7 -12 31 -30 41 -19 4 3 -1 6 -10 6 -10 0 -17 5 -17 10 0 12 23
13 34 3 4 -5 13 -8 19 -8 7 -1 11 -7 9 -14 -1 -7 2 -10 7 -6 15 8 1 37 -15 31
-19 -7 -29 13 -14 27 10 9 11 9 6 0 -5 -9 -2 -11 8 -7 9 3 13 10 10 15 -3 5 4
9 15 9 12 0 21 5 21 11 0 5 -4 8 -9 4 -5 -3 -13 -1 -16 5 -4 6 -3 10 2 9 4 -1
10 0 13 1 17 6 39 7 36 1 -3 -4 -1 -13 5 -21 6 -11 8 -5 5 17 -2 18 0 30 4 28
4 -3 13 2 20 10 7 8 17 15 22 15 6 0 0 -9 -13 -21 l-24 -20 28 17 c18 11 27
23 24 34 -3 13 0 16 16 12 16 -4 19 -2 13 13 -5 15 -4 16 9 5 10 -8 15 -9 15
-1 0 6 5 11 11 11 5 0 7 -4 4 -10 -4 -6 1 -7 11 -3 10 4 15 2 11 -4 -3 -5 0
-10 8 -10 17 0 28 24 15 32 -7 4 -7 13 0 24 5 10 7 21 3 24 -3 4 4 5 15 2 14
-2 23 3 27 14 3 10 15 18 28 18 40 1 47 3 47 14 0 8 -5 8 -15 -1 -8 -7 -15 -9
-15 -5 0 4 8 14 18 21 14 11 19 10 33 -8 17 -21 17 -21 14 5 -2 14 -6 30 -9
35 -3 5 0 10 7 9 31 -1 48 4 43 12 -4 5 5 4 18 -2 20 -10 22 -15 13 -27 -10
-13 -10 -13 5 -1 19 14 15 31 -7 31 -21 0 -25 26 -4 27 11 1 17 -2 14 -7 -4
-6 2 -7 11 -3 13 5 15 3 9 -8 -7 -12 -5 -12 6 -1 9 8 10 15 4 20 -13 9 -18 35
-6 28 5 -4 15 2 21 11 10 15 11 15 6 1 -7 -23 25 -17 38 8 14 25 28 34 40 27
5 -4 7 1 3 10 -7 18 5 29 37 32 36 4 37 5 30 17 -5 8 -2 9 11 4 16 -6 16 -4 4
11 -7 10 -9 15 -5 11 5 -4 16 -2 24 5 13 10 14 8 8 -11 -5 -14 -3 -22 4 -22 6
0 8 5 5 10 -8 13 8 13 22 -1 8 -8 13 -7 18 3 5 7 5 10 0 6 -4 -4 -14 -1 -21 7
-17 17 -18 29 -2 19 7 -5 9 -2 6 7 -4 10 1 15 13 16 11 1 17 -2 15 -6 -3 -4 0
-8 7 -8 7 0 13 8 13 18 0 10 -5 15 -11 12 -5 -3 -5 0 2 7 15 16 34 4 26 -18
-7 -18 -5 -17 17 12 9 12 10 17 3 12 -9 -5 -11 -2 -7 9 4 9 9 14 12 11 2 -3
13 6 24 19 11 14 24 23 29 20 5 -4 9 -1 9 4 0 6 6 11 14 11 8 0 17 7 20 15 10
27 47 0 42 -31 -3 -15 -1 -22 5 -18 6 3 8 9 5 12 -3 3 1 13 10 23 12 13 12 19
3 25 -8 4 -10 3 -5 -4 10 -17 -9 -15 -23 2 -8 10 -8 16 3 25 10 9 16 8 26 -4
21 -25 32 -17 25 18 -5 29 -5 30 7 11 12 -19 14 -19 30 -3 14 15 14 18 2 23
-10 4 -12 2 -8 -6 4 -7 3 -8 -5 -4 -9 6 -9 11 0 22 12 15 34 20 25 5 -3 -5 1
-12 10 -15 21 -8 24 -8 24 5 0 5 -4 7 -10 4 -19 -11 -10 30 9 47 19 16 20 16
16 -10 -3 -25 0 -28 25 -27 16 0 32 4 36 7 4 4 -2 6 -13 4 -31 -6 -50 9 -34
28 7 8 9 21 5 28 -4 7 -4 10 1 6 14 -13 45 11 38 30 -3 11 0 9 11 -5 18 -24
36 -30 36 -12 0 5 -4 8 -9 5 -5 -3 -12 2 -16 12 -4 12 4 26 27 47 18 17 34 34
35 38 6 28 11 32 24 18 8 -8 9 -11 2 -7 -6 3 -14 2 -17 -3 -4 -5 2 -8 11 -7
10 2 19 9 19 17 3 29 5 35 19 53 13 17 17 17 32 5 11 -9 14 -10 9 -1 -4 7 -1
12 8 12 19 0 21 16 4 26 -7 5 -8 3 -3 -6 5 -9 4 -11 -3 -6 -7 4 -12 2 -12 -5
0 -7 -3 -9 -6 -6 -4 4 -2 13 4 20 7 8 10 16 7 18 -2 3 5 5 15 6 11 1 19 -3 17
-9 -1 -6 4 -12 11 -13 7 -2 8 -1 2 2 -7 3 -5 12 6 24 14 16 15 22 5 32 -10 9
-11 9 -6 -4 7 -19 -10 -35 -20 -18 -4 6 2 21 14 33 12 12 18 26 14 30 -5 4 -1
6 7 4 8 -1 14 2 13 9 -2 7 4 10 12 7 10 -4 13 0 10 15 -3 14 0 19 7 15 7 -5 9
-2 5 9 -4 11 -2 14 9 10 13 -5 12 -8 -3 -26 -10 -11 -12 -17 -5 -13 7 4 21 2
30 -6 15 -12 16 -11 4 4 -10 13 -11 22 -2 38 10 18 14 19 28 8 13 -11 14 -11
7 1 -6 11 -4 13 7 9 8 -4 15 0 15 7 0 10 -5 11 -19 4 -10 -5 -18 -6 -18 -2 0
4 -5 2 -12 -5 -7 -7 -16 -12 -21 -12 -5 0 -1 7 7 16 9 8 14 20 11 24 -6 10 34
35 52 32 6 -1 15 3 19 9 5 8 3 9 -6 4 -7 -4 -16 -2 -21 6 -6 10 -9 11 -9 2 0
-7 -5 -13 -11 -13 -8 0 -8 4 1 14 6 8 19 12 28 10 13 -4 13 -2 -3 12 -17 14
-17 16 -2 11 11 -4 17 -2 16 6 -1 6 4 26 11 42 7 17 13 33 12 38 -3 11 12 9
25 -4 8 -8 13 -7 18 2 5 7 4 10 -1 6 -6 -3 -16 3 -23 15 -10 16 -10 18 0 12 9
-5 10 -2 6 9 -8 21 2 22 30 2 19 -13 22 -13 27 1 3 8 2 12 -4 9 -12 -8 -44 15
-48 35 -3 11 1 11 16 -3 10 -9 23 -17 28 -17 5 0 1 5 -9 11 -9 6 -15 14 -12
19 3 5 1 11 -4 14 -10 7 9 56 21 56 11 0 5 -43 -7 -53 -6 -5 -4 -7 5 -4 21 5
23 58 2 74 -9 8 -11 12 -4 8 7 -4 12 0 12 9 0 9 4 16 10 16 5 0 7 -8 4 -17 -5
-15 -4 -16 5 -3 15 21 14 30 -4 30 -24 0 -18 19 10 32 14 6 25 15 25 20 0 13
-18 9 -23 -4 -2 -7 -8 -10 -12 -5 -5 4 0 14 11 23 10 8 14 13 7 10 -6 -4 -14
-2 -18 4 -3 5 0 10 7 10 7 0 14 12 14 28 1 15 5 36 9 46 7 15 5 17 -6 11 -12
-8 -12 -6 -1 8 8 9 14 35 15 58 1 23 8 44 15 47 6 2 12 -1 12 -8 0 -6 -4 -9
-8 -6 -4 2 -9 -5 -9 -17 -2 -19 0 -18 16 7 10 15 21 26 24 24 3 -2 8 0 12 3 3
4 -2 6 -12 6 -41 0 -57 4 -48 11 6 4 11 18 13 31 3 17 0 21 -10 15 -10 -6 -11
-5 -1 7 7 9 14 46 16 82 2 37 7 70 10 74 4 3 2 12 -3 18 -7 9 -6 16 4 24 12
10 17 8 26 -10 10 -18 10 -21 -1 -17 -10 4 -15 -3 -16 -24 0 -20 2 -26 7 -17
5 7 6 17 3 23 -4 5 1 7 9 3 10 -3 15 -1 14 6 -6 34 -19 56 -34 60 -16 4 -16 5
1 6 9 0 17 6 17 12 0 5 -4 8 -9 5 -13 -8 -21 18 -11 34 5 8 5 21 0 30 -6 12
-5 17 5 17 7 0 11 -6 8 -13 -2 -6 0 -15 6 -19 6 -3 11 -11 11 -16 0 -6 -4 -8
-9 -4 -5 3 -13 0 -17 -7 -4 -7 -4 -10 1 -6 4 4 14 3 20 -2 9 -8 12 -4 10 12
-1 13 -4 23 -5 23 -9 0 -5 45 4 45 6 1 2 6 -9 13 -11 7 -21 18 -23 25 -1 7 13
2 32 -13 22 -17 37 -22 41 -15 3 6 3 9 -2 8 -17 -5 -54 24 -49 37 3 8 -1 21
-9 29 -11 11 -12 16 -2 19 9 4 8 8 -3 16 -9 6 -10 11 -3 11 12 0 12 17 0 36
-4 7 1 14 13 17 12 3 24 -1 30 -11 5 -10 10 -12 10 -5 0 6 -5 15 -10 18 -6 4
-8 10 -5 15 3 5 1 11 -4 14 -5 4 -13 1 -17 -5 -5 -8 -3 -9 6 -4 9 5 11 4 6 -4
-15 -24 -23 1 -13 43 6 25 14 43 18 40 5 -3 6 3 2 12 -5 13 -3 15 8 9 12 -8
12 -6 0 9 -13 15 -13 19 -1 26 8 5 11 12 7 17 -10 9 -28 -18 -23 -32 2 -6 -2
-19 -10 -30 -8 -10 -14 -14 -14 -8 0 7 5 15 10 18 6 4 8 10 5 15 -3 5 -1 19 4
32 5 12 9 26 9 31 2 19 37 65 45 60 6 -4 7 -1 2 7 -6 10 -11 10 -20 -3 -7 -9
-15 -13 -19 -9 -4 4 -7 3 -6 -3 4 -19 0 -35 -9 -35 -6 0 -6 12 -1 30 5 18 5
32 -1 36 -6 4 -6 10 0 18 6 7 9 29 8 49 -2 20 -2 37 -1 37 2 0 13 -10 25 -22
12 -13 18 -17 14 -9 -4 8 -9 27 -11 43 -3 21 0 27 9 22 7 -5 5 0 -3 11 -14 17
-13 18 5 12 20 -7 20 -7 1 8 -11 8 -24 15 -29 15 -4 0 -5 5 -2 10 4 6 9 8 13
6 4 -2 6 10 6 27 -1 21 -6 31 -15 29 -10 -3 -10 0 0 12 8 9 12 35 9 65 -3 43
-1 48 14 40 11 -6 19 -5 24 3 4 6 3 8 -3 5 -6 -4 -16 0 -23 8 -7 8 -17 12 -24
8 -6 -4 -5 1 2 9 15 18 13 59 -3 70 -6 5 -5 8 3 8 6 0 12 5 12 11 0 5 -4 8 -9
4 -5 -3 -12 -1 -16 5 -3 5 -1 10 5 10 6 0 4 10 -6 25 -8 13 -13 29 -10 34 4 5
2 12 -3 16 -6 3 -7 13 -4 22 5 12 3 14 -7 8 -8 -5 -11 -4 -6 3 3 6 2 13 -3 16
-5 3 -7 15 -4 26 5 18 -19 55 -29 45 -3 -3 -5 2 -5 10 0 19 13 19 21 0 7 -20
32 -19 41 3 5 14 4 15 -6 5 -7 -7 -17 -13 -23 -13 -5 0 -6 3 -3 7 13 12 -27
32 -41 21 -10 -9 -11 -6 -3 15 7 18 7 28 -1 33 -7 4 -8 3 -4 -4 11 -18 0 -14
-15 5 -10 11 -10 14 -1 9 6 -4 12 -2 12 3 0 6 -6 11 -13 11 -15 0 -55 40 -41
40 5 0 1 7 -9 14 -11 9 -14 17 -8 21 16 9 -10 44 -30 40 -12 -3 -17 2 -14 13
2 10 -3 26 -11 37 -8 10 -14 13 -14 7 0 -7 -5 -12 -10 -12 -6 0 -10 6 -9 13 3
26 -1 38 -12 31 -8 -4 -7 -9 2 -15 9 -6 10 -9 2 -9 -6 0 -20 10 -30 23 -10 13
-25 21 -32 19 -12 -4 -12 -3 0 11 8 8 17 13 22 10 4 -2 7 1 7 6 0 12 -13 14
-24 4 -10 -11 -37 -12 -30 -2 3 5 0 9 -5 9 -6 0 -11 5 -11 12 0 9 3 9 12 0 17
-17 28 -15 28 6 0 13 -2 14 -9 4 -6 -10 -10 -10 -20 1 -6 8 -20 13 -30 10 -15
-4 -18 0 -16 21 4 30 5 29 -31 16 -22 -9 -25 -8 -16 2 11 14 -12 57 -25 45 -3
-4 2 -13 12 -20 16 -13 17 -14 1 -20 -10 -4 -15 -3 -11 3 3 6 -1 13 -10 16
-10 4 -13 13 -9 27 5 17 4 18 -9 6 -8 -8 -12 -18 -9 -24 3 -5 -4 -2 -15 8 -11
9 -24 14 -28 10 -5 -5 -3 1 5 11 13 18 13 19 -2 14 -21 -9 -31 17 -17 44 6 11
8 22 6 25 -3 2 -8 -5 -12 -16 -3 -12 -11 -19 -16 -16 -5 3 -7 0 -6 -7 2 -7 2
-10 0 -5 -3 4 -9 4 -15 1 -5 -4 -4 4 3 17 11 21 10 23 -3 11 -17 -13 -52 -6
-42 9 5 8 -19 14 -41 9 -5 -1 -7 2 -3 6 8 7 -29 39 -46 39 -15 0 -18 22 -5 31
9 5 10 2 6 -9 -5 -12 0 -15 25 -12 25 4 28 2 18 -10 -7 -8 -10 -15 -7 -15 2 0
10 6 16 14 10 12 8 17 -10 26 -14 8 -19 8 -15 1 4 -6 3 -11 -2 -11 -6 0 -13 7
-16 16 -6 15 -8 15 -26 -1 -13 -11 -20 -14 -20 -6 0 7 -4 10 -9 6 -5 -3 -21 9
-35 27 -18 22 -25 26 -21 13 6 -18 5 -17 -7 2 -13 21 -16 23 -38 23 -5 0 -10
7 -10 15 0 13 -4 14 -22 4 -22 -12 -22 -11 -8 6 14 17 13 18 -8 13 -18 -5 -21
-4 -12 7 8 9 6 15 -7 20 -27 12 -37 12 -52 1 -11 -8 -13 -8 -7 2 7 11 -6 17
-29 12 -5 -1 -6 2 -2 7 12 11 30 11 40 -2 5 -6 7 -3 3 8 -3 9 -1 17 3 17 5 0
11 -5 13 -12 3 -8 6 -7 10 4 5 11 1 15 -15 13 -12 -1 -22 -3 -22 -5 0 -1 -13
-3 -29 -5 -21 -1 -30 3 -33 16 -3 11 -10 19 -15 19 -5 0 -6 -5 -3 -11 4 -6 -2
-5 -13 2 -12 7 -18 18 -14 24 10 16 11 36 1 29 -5 -3 -6 -10 -3 -16 5 -8 1 -9
-10 -5 -10 4 -15 3 -11 -3 3 -6 1 -10 -4 -10 -6 0 -11 7 -11 16 0 10 -5 14
-15 10 -12 -4 -13 -2 -5 13 8 16 7 18 -10 14 -11 -3 -17 -10 -13 -17 3 -6 2
-7 -3 -3 -9 8 -10 12 -13 40 -1 8 -4 7 -11 -3 -8 -13 -10 -13 -10 2 0 9 6 19
13 21 7 4 8 6 1 6 -6 1 -17 -6 -24 -14 -7 -8 -17 -15 -22 -15 -6 0 -6 5 1 14
9 10 8 16 -4 26 -8 7 -13 16 -10 20 3 5 -5 6 -17 3 -22 -4 -23 -4 -4 11 11 9
15 16 9 16 -6 0 -16 -7 -23 -15 -7 -8 -17 -12 -23 -8 -6 4 -7 1 -2 -7 5 -9 4
-11 -3 -6 -18 11 -14 23 10 29 12 4 19 9 16 12 -3 4 -16 2 -27 -5 -26 -14 -65
4 -57 26 3 9 -1 17 -12 20 -9 3 -25 10 -34 15 -11 5 -20 5 -24 -3 -5 -7 -3 -8
6 -3 9 5 11 4 6 -4 -6 -8 -12 -9 -20 -2 -7 6 -17 7 -21 3 -5 -4 -5 -1 -1 6 4
6 2 12 -3 12 -6 0 -11 5 -11 12 0 9 3 9 12 0 7 -7 17 -12 23 -12 5 0 2 7 -8
15 -21 15 -50 9 -41 -9 3 -6 -3 -1 -14 12 -11 12 -26 22 -34 22 -7 0 -20 9
-28 19 -7 11 -17 18 -21 16 -3 -3 -23 6 -42 19 -19 13 -39 21 -43 18 -4 -4 -4
-2 0 5 3 6 1 15 -6 19 -8 5 -6 10 8 16 16 7 15 7 -6 5 -17 -1 -28 5 -38 23
-13 23 -13 23 -9 3 3 -13 1 -23 -4 -23 -5 0 -9 5 -9 10 0 6 -5 10 -11 10 -5 0
-7 -6 -3 -12 4 -7 -2 -5 -14 6 -12 10 -19 23 -15 29 4 6 0 8 -10 4 -10 -3 -17
-2 -17 4 0 6 -4 8 -8 5 -18 -11 -37 14 -41 57 -1 11 -31 8 -31 -3 0 -5 -5 -10
-11 -10 -5 0 -7 5 -4 10 3 6 1 10 -5 10 -6 0 -8 5 -4 13 5 7 1 7 -10 -2 -16
-13 -17 -12 -11 15 5 27 5 27 -5 5 -10 -23 -11 -24 -33 -5 -12 11 -25 23 -28
27 -3 5 -10 9 -15 9 -5 -1 -7 7 -6 16 3 13 1 14 -11 4 -7 -6 -17 -8 -21 -4 -4
4 -13 7 -19 7 -7 0 -11 12 -11 27 1 15 -3 25 -8 21 -6 -3 -8 4 -4 18 3 13 3
18 0 11 -3 -6 -11 -9 -17 -5 -7 4 -4 -6 7 -21 10 -16 14 -27 10 -24 -53 26
-64 33 -64 41 0 5 7 4 15 -3 10 -9 15 -9 15 -1 0 11 -13 15 -39 12 -7 -2 -20
1 -30 5 -9 4 -20 8 -25 8 -6 1 -11 13 -11 29 -1 15 -6 31 -10 35 -5 4 -6 -1
-2 -10 3 -10 -1 -19 -11 -23 -9 -3 -13 -3 -9 1 3 4 -5 17 -20 30 -22 19 -30
21 -42 11 -9 -7 -12 -8 -8 -1 3 6 -5 17 -18 24 -14 7 -25 17 -25 22 0 5 -4 6
-10 3 -5 -3 -10 -1 -10 5 0 6 -4 8 -10 5 -5 -3 -10 -3 -10 2 0 4 -13 14 -30
21 -16 8 -30 20 -30 28 0 9 5 12 10 9 6 -3 10 -1 10 4 0 6 -4 11 -9 11 -14 0
-32 -26 -23 -35 4 -5 1 -5 -6 -1 -7 4 -10 12 -7 17 4 5 1 9 -4 9 -15 0 -14 27
2 34 6 3 2 3 -10 1 -12 -3 -24 -1 -28 5 -4 7 -13 7 -27 -1 -15 -8 -19 -8 -14
0 7 10 -6 16 -27 12 -5 -1 -5 4 -1 10 5 9 2 10 -10 6 -11 -4 -15 -3 -11 4 4 6
0 9 -10 7 -11 -2 -19 4 -20 14 -3 15 -1 16 19 3 14 -9 26 -11 36 -5 13 9 13
10 0 11 -8 1 -21 1 -29 0 -7 -2 -11 2 -8 6 3 5 -3 10 -14 10 -12 1 -19 -5 -19
-15 0 -14 -2 -15 -10 -2 -6 9 -5 19 3 29 10 12 9 13 -9 3 -12 -6 -26 -7 -34
-2 -8 5 -18 6 -22 4 -5 -3 -7 0 -6 8 2 7 -5 12 -14 12 -10 -1 -15 2 -12 7 3 5
0 9 -6 9 -6 0 -8 5 -4 13 6 9 5 9 -7 0 -13 -10 -16 -10 -17 0 0 6 -4 23 -8 36
-5 19 -4 22 6 16 9 -5 11 -4 6 4 -12 18 -28 1 -23 -25 6 -32 -11 -31 -19 1 -3
14 -10 25 -15 25 -5 0 -6 -8 -3 -17 5 -15 4 -16 -5 -3 -6 8 -14 15 -18 16 -21
2 -42 17 -37 26 3 5 12 1 21 -9 13 -16 13 -15 1 7 -7 14 -11 28 -10 31 1 4 -8
5 -18 2 -11 -3 -20 0 -20 6 0 6 -5 11 -10 11 -6 0 -6 -7 2 -19 6 -11 19 -17
27 -14 13 4 14 3 2 -5 -16 -12 -63 16 -53 32 3 5 -4 7 -16 4 -13 -4 -20 -2
-19 6 1 6 -6 10 -15 8 -12 -2 -16 2 -12 13 3 8 2 15 -4 15 -6 0 -13 -6 -15
-12 -4 -10 -6 -10 -6 0 -1 7 -6 10 -11 7 -6 -4 -9 -1 -8 6 2 7 -4 14 -12 14
-8 0 -14 7 -12 14 2 8 -3 11 -12 8 -8 -3 -26 3 -39 13 -13 11 -28 16 -32 12
-5 -4 -5 1 -2 11 4 9 10 25 14 35 4 10 -1 8 -14 -8 -19 -22 -22 -23 -37 -8 -9
9 -25 20 -37 23 -20 7 -20 7 -2 27 l18 21 -30 -19 c-19 -12 -26 -14 -20 -5 6
11 4 13 -11 7 -10 -4 -15 -4 -12 0 4 3 1 12 -5 19 -9 10 -16 10 -25 2 -11 -9
-13 -7 -10 9 5 29 22 35 34 12 6 -12 22 -23 35 -25 18 -2 20 -1 9 6 -8 5 -17
8 -21 5 -9 -5 -21 25 -14 36 6 10 -29 5 -47 -6 -8 -5 -9 -2 -5 9 6 17 -5 31
-17 20 -3 -4 1 -17 9 -29 11 -17 12 -25 3 -30 -6 -4 -8 -3 -5 3 7 11 -28 45
-37 36 -3 -4 -6 -1 -6 5 0 7 4 12 9 12 5 0 11 7 14 14 4 10 1 13 -8 10 -8 -3
-17 -15 -21 -27 -6 -18 -7 -18 -16 -4 -5 10 -17 17 -26 18 -11 0 -12 2 -4 6 7
3 20 -1 30 -9 15 -12 16 -11 3 5 -9 12 -23 17 -38 14 -15 -3 -23 1 -23 9 0 13
-13 19 -34 15 -5 -1 -6 6 -2 15 5 14 4 15 -9 4 -12 -10 -15 -10 -15 0 0 8 -3
11 -6 7 -4 -3 -13 1 -21 9 -8 8 -19 11 -25 8 -7 -4 -8 -2 -4 4 5 8 13 9 25 2
10 -5 21 -6 25 -3 3 3 6 1 6 -6 0 -7 5 -9 10 -6 14 9 12 25 -2 22 -7 -1 -12 4
-10 12 3 12 0 12 -13 1 -13 -11 -19 -10 -34 4 -13 11 -21 14 -26 7 -3 -6 -12
-11 -18 -10 -9 0 -9 2 1 6 22 9 13 25 -10 17 -20 -6 -21 -5 -9 10 15 18 12 26
-16 31 -10 1 -17 8 -15 16 2 10 0 10 -12 0 -9 -7 -17 -8 -20 -2 -3 5 0 11 6
14 7 2 0 4 -17 3 -16 -1 -36 -5 -43 -9 -8 -6 -11 -4 -10 4 2 7 -3 14 -9 15 -7
1 -16 3 -20 4 -5 1 -12 2 -18 0 -5 -1 -1 9 10 21 11 12 15 19 8 16 -6 -4 -13
-4 -16 0 -2 5 -2 2 -1 -4 2 -7 -1 -13 -6 -13 -9 0 -14 14 -11 33 0 4 -4 7 -10
7 -5 0 -7 5 -3 11 5 8 1 8 -14 0 -37 -20 -86 0 -76 31 5 18 4 19 -9 7 -8 -8
-13 -18 -10 -23 3 -4 -6 -1 -19 8 -14 9 -28 13 -32 9 -4 -5 -6 -1 -4 7 2 8 -3
14 -9 12 -7 -1 -13 2 -13 8 0 6 5 10 10 10 6 0 10 5 10 11 0 8 -4 8 -12 2 -16
-12 -48 -13 -48 -1 0 4 -5 8 -11 8 -5 0 -7 -4 -4 -10 12 -20 -6 -10 -32 18
-15 15 -23 21 -19 15 5 -10 1 -11 -19 -3 -14 5 -29 9 -33 9 -4 -1 -10 0 -14 1
-5 1 -12 3 -18 4 -5 0 -16 10 -25 21 -9 13 -14 15 -12 5 2 -8 2 -12 0 -7 -3 4
-9 4 -15 1 -5 -4 -4 4 2 17 13 23 12 24 -7 7 -22 -20 -33 -23 -33 -7 0 5 6 7
13 3 6 -4 9 -4 5 1 -4 4 -3 17 3 29 9 18 7 17 -9 -3 -12 -15 -24 -21 -32 -16
-8 5 -11 4 -6 -3 3 -6 2 -13 -3 -16 -5 -4 -12 -2 -16 4 -4 6 -10 8 -14 6 -12
-8 -9 28 3 36 7 5 7 8 -2 8 -8 0 -16 -9 -19 -20 -6 -23 -23 -27 -23 -5 0 8 -4
15 -10 15 -5 0 -7 -8 -4 -17 5 -14 4 -15 -4 -4 -6 8 -17 11 -26 8 -9 -4 -16
-2 -16 3 0 6 -5 10 -11 10 -5 0 -7 -5 -3 -12 5 -7 3 -8 -6 -3 -8 5 -34 8 -58
8 -29 -1 -40 2 -31 8 8 5 23 6 34 4 11 -3 15 -2 8 1 -7 3 -10 11 -7 19 3 7 1
16 -5 20 -7 3 -8 0 -5 -9z m-162 -25 c3 -5 -1 -12 -10 -15 -20 -8 -29 -1 -19
13 8 13 22 14 29 2z m869 -236 c4 -8 1 -17 -5 -21 -7 -4 -8 -3 -4 4 4 7 1 12
-9 12 -9 0 -13 5 -10 10 9 14 22 12 28 -5z m-1753 -43 c0 -4 -10 -13 -22 -21
-23 -14 -23 -14 -4 8 20 22 26 25 26 13z m1888 -38 c12 -8 22 -12 22 -8 0 3 7
1 15 -6 8 -7 15 -9 15 -6 0 4 5 4 11 0 8 -4 7 -9 -2 -15 -8 -4 -16 -4 -20 2
-3 6 -15 11 -27 12 -11 0 -18 5 -16 9 5 7 -10 12 -28 9 -5 0 -8 4 -8 9 0 14
12 12 38 -6z m127 -74 c3 -5 1 -10 -4 -10 -6 0 -11 5 -11 10 0 6 2 10 4 10 3
0 8 -4 11 -10z m-2375 -110 c0 -5 -8 -10 -17 -10 -15 0 -16 2 -3 10 19 12 20
12 20 0z m-850 -530 c0 -5 -7 -10 -16 -10 -8 0 -12 5 -9 10 3 6 10 10 16 10 5
0 9 -4 9 -10z m4320 -35 c11 -13 10 -14 -4 -9 -9 3 -16 10 -16 15 0 13 6 11
20 -6z m-4490 -70 c0 -8 -4 -15 -10 -15 -5 0 -7 7 -4 15 4 8 8 15 10 15 2 0 4
-7 4 -15z m5165 -344 c3 -5 1 -12 -5 -16 -5 -3 -10 1 -10 9 0 18 6 21 15 7z
m165 -122 c0 -6 -4 -7 -10 -4 -5 3 -10 11 -10 16 0 6 5 7 10 4 6 -3 10 -11 10
-16z m322 -187 c-4 -10 -7 -12 -10 -4 -2 7 -10 12 -18 12 -8 0 -14 4 -14 9 0
4 11 6 24 4 18 -4 23 -10 18 -21z m-6682 8 c0 -5 -5 -10 -11 -10 -5 0 -7 5 -4
10 3 6 8 10 11 10 2 0 4 -4 4 -10z m6820 -84 c7 -9 6 -13 -5 -13 -8 0 -12 4
-9 9 3 4 -4 8 -15 8 -12 0 -21 4 -21 9 0 12 37 2 50 -13z m-7140 -118 c0 -4
-7 -8 -15 -8 -8 0 -15 4 -15 8 0 5 7 9 15 9 8 0 15 -4 15 -9z m-60 -40 c0 -4
-4 -8 -9 -8 -6 0 -12 4 -15 8 -3 5 1 9 9 9 8 0 15 -4 15 -9z m7514 -49 c-3 -5
-10 -7 -15 -3 -5 3 -7 10 -3 15 3 5 10 7 15 3 5 -3 7 -10 3 -15z m556 -353 c0
-11 -19 -15 -25 -6 -3 5 1 10 9 10 9 0 16 -2 16 -4z m185 -166 c3 -5 1 -10 -4
-10 -6 0 -11 5 -11 10 0 6 2 10 4 10 3 0 8 -4 11 -10z m50 -60 c3 -6 -1 -7 -9
-4 -18 7 -21 14 -7 14 6 0 13 -4 16 -10z m190 -780 c3 -5 1 -10 -4 -10 -6 0
-11 5 -11 10 0 6 2 10 4 10 3 0 8 -4 11 -10z m-9415 -1094 c0 -2 -7 -7 -16
-10 -8 -3 -12 -2 -9 4 6 10 25 14 25 6z m25 -136 c3 -5 1 -10 -4 -10 -6 0 -11
5 -11 10 0 6 2 10 4 10 3 0 8 -4 11 -10z m15 -24 c0 -11 -19 -15 -25 -6 -3 5
1 10 9 10 9 0 16 -2 16 -4z m420 -822 c0 -8 -5 -12 -10 -9 -6 4 -8 11 -5 16 9
14 15 11 15 -7z m8150 -195 c0 -6 -4 -7 -10 -4 -5 3 -10 11 -10 16 0 6 5 7 10
4 6 -3 10 -11 10 -16z m-7730 -133 c0 -3 -4 -8 -10 -11 -5 -3 -10 -1 -10 4 0
6 5 11 10 11 6 0 10 -2 10 -4z m60 -14 c0 -5 10 -14 23 -20 20 -9 20 -10 2 -9
-11 0 -29 9 -39 19 -17 16 -18 18 -3 18 9 0 17 -4 17 -8z m180 -122 c0 -5 7
-10 15 -10 8 0 15 -4 15 -9 0 -5 8 -11 18 -13 9 -2 13 -6 7 -9 -5 -4 -28 7
-49 22 -24 18 -33 29 -22 29 9 0 16 -4 16 -10z m7023 -35 c-3 -9 -8 -14 -10
-11 -3 3 -2 9 2 15 9 16 15 13 8 -4z m-317 -252 c-8 -9 -46 18 -40 28 4 6 13
4 25 -7 11 -9 17 -19 15 -21z m-5805 -325 c11 -21 11 -22 -4 -9 -10 7 -17 17
-17 22 0 15 9 10 21 -13z m4999 -192 c0 -11 -19 -15 -25 -6 -3 5 1 10 9 10 9
0 16 -2 16 -4z m-4449 -166 c5 0 9 -5 9 -12 0 -6 -3 -8 -7 -5 -3 4 -13 1 -21
-6 -13 -10 -15 -9 -9 5 3 10 2 20 -3 23 -6 4 -10 11 -10 16 0 6 7 3 16 -5 8
-9 20 -16 25 -16z m4219 16 c0 -3 -4 -8 -10 -11 -5 -3 -10 -1 -10 4 0 6 5 11
10 11 6 0 10 -2 10 -4z m-180 -137 c0 -6 -4 -7 -10 -4 -5 3 -10 11 -10 16 0 6
5 7 10 4 6 -3 10 -11 10 -16z m-3708 -98 c7 11 9 11 6 1 -5 -17 -23 -17 -24 0
-1 9 1 8 4 -1 3 -12 5 -12 14 0z m135 -103 c-3 -8 -6 -5 -6 6 -1 11 2 17 5 13
3 -3 4 -12 1 -19z m725 -500 c-7 -7 -12 -8 -12 -2 0 14 12 26 19 19 2 -3 -1
-11 -7 -17z m1450 -200 c-7 -7 -12 -8 -12 -2 0 14 12 26 19 19 2 -3 -1 -11 -7
-17z m-201 -81 c-10 -9 -11 -8 -5 6 3 10 9 15 12 12 3 -3 0 -11 -7 -18z"/>
<path d="M4755 9360 c1 -11 5 -23 10 -27 4 -5 5 -3 2 4 -4 6 -2 13 4 15 7 2 6
8 -3 16 -12 9 -14 8 -13 -8z"/>
<path d="M4973 9362 c-8 -14 -8 -19 1 -19 7 0 13 9 13 19 1 10 1 18 0 18 -1 0
-7 -8 -14 -18z"/>
<path d="M5127 9369 c7 -7 15 -10 18 -7 3 3 -2 9 -12 12 -14 6 -15 5 -6 -5z"/>
<path d="M4850 9360 c0 -5 5 -10 10 -10 6 0 10 5 10 10 0 6 -4 10 -10 10 -5 0
-10 -4 -10 -10z"/>
<path d="M5300 9358 c0 -4 4 -8 9 -8 6 0 12 4 15 8 3 5 -1 9 -9 9 -8 0 -15 -4
-15 -9z"/>
<path d="M5336 9353 c-6 -14 -5 -15 5 -6 7 7 10 15 7 18 -3 3 -9 -2 -12 -12z"/>
<path d="M5385 9360 c-3 -6 1 -7 9 -4 18 7 21 14 7 14 -6 0 -13 -4 -16 -10z"/>
<path d="M5439 9353 c-12 -16 -12 -17 2 -6 9 7 20 9 24 5 5 -4 5 -1 1 6 -9 16
-11 15 -27 -5z"/>
<path d="M4720 9351 c0 -7 -4 -9 -10 -6 -6 4 -7 -1 -3 -11 6 -15 7 -15 15 1 6
9 7 19 4 22 -3 4 -6 1 -6 -6z"/>
<path d="M4787 9337 c-3 -8 1 -14 8 -14 7 0 11 6 8 14 -3 7 -6 13 -8 13 -2 0
-5 -6 -8 -13z"/>
<path d="M5570 9340 c0 -5 5 -10 11 -10 5 0 7 5 4 10 -3 6 -8 10 -11 10 -2 0
-4 -4 -4 -10z"/>
<path d="M4640 9331 c0 -7 -5 -9 -12 -5 -7 5 -8 3 -3 -5 5 -9 10 -10 18 -2 6
6 8 14 4 18 -4 3 -7 1 -7 -6z"/>
<path d="M4676 9325 c-4 -11 -2 -14 6 -9 7 5 9 2 5 -9 -4 -11 -2 -14 9 -10 12
4 12 8 2 22 -7 9 -13 17 -14 19 -1 2 -4 -4 -8 -13z"/>
<path d="M5518 9333 c7 -3 16 -2 19 1 4 3 -2 6 -13 5 -11 0 -14 -3 -6 -6z"/>
<path d="M5410 9326 c0 -2 7 -9 15 -16 13 -11 14 -10 9 4 -5 14 -24 23 -24 12z"/>
<path d="M4590 9299 c0 -5 5 -9 10 -9 6 0 12 0 15 0 14 0 8 13 -7 16 -10 1
-18 -2 -18 -7z"/>
<path d="M5557 9303 c-4 -3 -7 -13 -7 -22 1 -13 3 -13 11 2 11 19 8 33 -4 20z"/>
<path d="M4570 9291 c0 -7 -5 -9 -12 -5 -7 5 -8 3 -3 -5 5 -9 10 -10 18 -2 6
6 8 14 4 18 -4 3 -7 1 -7 -6z"/>
<path d="M5577 9287 c-9 -23 8 -30 24 -10 8 9 9 14 2 10 -6 -4 -13 -2 -15 5
-3 8 -7 6 -11 -5z"/>
<path d="M4470 9285 c0 -7 30 -13 34 -7 3 4 -4 9 -15 9 -10 1 -19 0 -19 -2z"/>
<path d="M5645 9280 c-3 -5 -1 -10 4 -10 6 0 11 5 11 10 0 6 -2 10 -4 10 -3 0
-8 -4 -11 -10z"/>
<path d="M4510 9260 c-6 -11 -8 -20 -6 -20 3 0 10 9 16 20 6 11 8 20 6 20 -3
0 -10 -9 -16 -20z"/>
<path d="M4396 9262 c-3 -5 1 -9 9 -9 8 0 12 4 9 9 -3 4 -7 8 -9 8 -2 0 -6 -4
-9 -8z"/>
<path d="M4460 9260 c8 -5 20 -10 25 -10 6 0 3 5 -5 10 -8 5 -19 10 -25 10 -5
0 -3 -5 5 -10z"/>
<path d="M5670 9260 c0 -5 5 -10 10 -10 6 0 10 5 10 10 0 6 -4 10 -10 10 -5 0
-10 -4 -10 -10z"/>
<path d="M4420 9240 c-9 -6 -10 -10 -3 -10 6 0 15 5 18 10 8 12 4 12 -15 0z"/>
<path d="M4439 9227 c-15 -19 -18 -20 -35 -7 -18 13 -18 13 -1 -5 17 -19 17
-19 39 3 12 12 20 23 17 26 -2 2 -11 -6 -20 -17z"/>
<path d="M5715 9240 c26 -11 35 -12 35 -2 0 4 -12 8 -27 9 -24 1 -25 1 -8 -7z"/>
<path d="M4364 9215 c-5 -12 -9 -13 -20 -4 -12 10 -13 9 -8 -5 8 -22 21 -20
34 4 6 11 8 20 5 20 -3 0 -8 -7 -11 -15z"/>
<path d="M5780 9212 c0 -10 27 -42 35 -42 3 0 9 9 15 20 7 14 7 20 0 20 -5 0
-10 -8 -10 -17 -1 -15 -4 -14 -20 6 -11 13 -20 19 -20 13z"/>
<path d="M4376 9193 c-6 -14 -5 -15 5 -6 7 7 10 15 7 18 -3 3 -9 -2 -12 -12z"/>
<path d="M4213 9183 c4 -3 1 -13 -6 -22 -11 -14 -10 -14 5 -2 16 12 16 31 1
31 -4 0 -3 -3 0 -7z"/>
<path d="M4310 9180 c0 -5 5 -10 10 -10 6 0 10 5 10 10 0 6 -4 10 -10 10 -5 0
-10 -4 -10 -10z"/>
<path d="M5905 9180 c-3 -6 1 -7 9 -4 18 7 21 14 7 14 -6 0 -13 -4 -16 -10z"/>
<path d="M5864 9164 c-18 -14 -18 -15 4 -4 12 6 22 13 22 15 0 8 -5 6 -26 -11z"/>
<path d="M4239 9153 c-13 -16 -12 -17 4 -4 16 13 21 21 13 21 -2 0 -10 -8 -17
-17z"/>
<path d="M5956 9147 c3 -10 9 -15 12 -12 3 3 0 11 -7 18 -10 9 -11 8 -5 -6z"/>
<path d="M6015 9140 c-3 -5 -1 -10 4 -10 6 0 11 5 11 10 0 6 -2 10 -4 10 -3 0
-8 -4 -11 -10z"/>
<path d="M4160 9120 c-12 -7 -10 -9 7 -7 12 0 19 5 17 9 -6 10 -6 10 -24 -2z"/>
<path d="M5995 9089 c-4 -6 -5 -12 -2 -15 2 -3 7 2 10 11 7 17 1 20 -8 4z"/>
<path d="M6016 9085 c-3 -8 -1 -15 4 -15 6 0 10 7 10 15 0 8 -2 15 -4 15 -2 0
-6 -7 -10 -15z"/>
<path d="M6053 9086 c0 -8 7 -13 16 -11 9 1 23 -3 31 -9 13 -10 13 -9 1 7 -8
9 -16 15 -19 12 -3 -3 -10 0 -17 5 -8 7 -12 5 -12 -4z"/>
<path d="M4116 9075 c-9 -26 -7 -32 5 -12 6 10 9 21 6 23 -2 3 -7 -2 -11 -11z"/>
<path d="M4030 9038 c0 -4 4 -8 9 -8 6 0 12 4 15 8 3 5 -1 9 -9 9 -8 0 -15 -4
-15 -9z"/>
<path d="M3993 9025 c0 -8 4 -15 9 -15 4 0 8 4 8 9 0 6 -4 12 -8 15 -5 3 -9
-1 -9 -9z"/>
<path d="M3927 9019 c7 -7 15 -10 18 -7 3 3 -2 9 -12 12 -14 6 -15 5 -6 -5z"/>
<path d="M4027 8999 c4 -13 8 -18 11 -10 2 7 -1 18 -6 23 -8 8 -9 4 -5 -13z"/>
<path d="M3956 8995 c-3 -8 -1 -15 4 -15 6 0 10 7 10 15 0 8 -2 15 -4 15 -2 0
-6 -7 -10 -15z"/>
<path d="M6180 8998 c0 -4 7 -8 15 -8 8 0 15 4 15 8 0 5 -7 9 -15 9 -8 0 -15
-4 -15 -9z"/>
<path d="M3988 8975 c-15 -14 -31 -25 -36 -25 -5 0 -16 -7 -23 -17 -13 -15
-12 -15 16 0 17 8 41 27 54 41 31 33 24 34 -11 1z"/>
<path d="M3913 8953 c0 -10 4 -10 16 -1 9 7 18 13 20 15 2 1 -5 1 -16 0 -11 0
-20 -7 -20 -14z"/>
<path d="M6296 8908 c3 -4 12 -8 20 -8 8 0 14 4 14 8 0 4 -9 8 -19 8 -11 0
-17 -4 -15 -8z"/>
<path d="M6351 8907 c-8 -10 -7 -14 2 -14 8 0 14 6 14 14 0 7 -1 13 -2 13 -2
0 -8 -6 -14 -13z"/>
<path d="M3775 8900 c-3 -5 -1 -10 4 -10 6 0 11 5 11 10 0 6 -2 10 -4 10 -3 0
-8 -4 -11 -10z"/>
<path d="M6386 8902 c-3 -5 1 -9 9 -9 8 0 12 4 9 9 -3 4 -7 8 -9 8 -2 0 -6 -4
-9 -8z"/>
<path d="M6450 8860 c0 -5 5 -10 11 -10 5 0 7 5 4 10 -3 6 -8 10 -11 10 -2 0
-4 -4 -4 -10z"/>
<path d="M6519 8808 c15 -21 31 -23 31 -6 0 6 -3 8 -7 5 -3 -4 -13 -1 -22 6
-14 11 -14 10 -2 -5z"/>
<path d="M3636 8787 c3 -10 9 -15 12 -12 3 3 0 11 -7 18 -10 9 -11 8 -5 -6z"/>
<path d="M3585 8780 c-3 -6 1 -7 9 -4 18 7 21 14 7 14 -6 0 -13 -4 -16 -10z"/>
<path d="M6595 8780 c-3 -5 -1 -10 4 -10 6 0 11 5 11 10 0 6 -2 10 -4 10 -3 0
-8 -4 -11 -10z"/>
<path d="M3519 8753 c-13 -16 -12 -17 4 -4 9 7 17 15 17 17 0 8 -8 3 -21 -13z"/>
<path d="M6570 8760 c0 -5 5 -10 11 -10 5 0 7 5 4 10 -3 6 -8 10 -11 10 -2 0
-4 -4 -4 -10z"/>
<path d="M3550 8739 c0 -5 5 -7 10 -4 6 3 10 8 10 11 0 2 -4 4 -10 4 -5 0 -10
-5 -10 -11z"/>
<path d="M3580 8745 c0 -7 30 -13 34 -7 3 4 -4 9 -15 9 -10 1 -19 0 -19 -2z"/>
<path d="M6659 8748 c-6 -20 -6 -39 0 -42 4 -3 7 6 7 20 0 20 -4 32 -7 22z"/>
<path d="M6560 8731 c8 -5 18 -7 22 -5 4 3 8 0 8 -5 0 -6 5 -11 12 -11 21 0
-9 23 -34 27 -18 2 -19 1 -8 -6z"/>
<path d="M6673 8684 c-4 -12 -7 -13 -14 -3 -4 8 -11 11 -14 8 -3 -4 1 -12 9
-18 12 -10 17 -8 26 8 6 12 8 21 5 21 -3 0 -8 -7 -12 -16z"/>
<path d="M3417 8679 c7 -7 15 -10 18 -7 3 3 -2 9 -12 12 -14 6 -15 5 -6 -5z"/>
<path d="M6710 8672 c6 -12 8 -28 4 -35 -4 -6 -3 -9 1 -4 5 4 16 0 26 -9 11
-10 19 -12 24 -4 4 6 1 9 -7 8 -7 -2 -12 3 -10 10 1 8 -2 11 -9 6 -9 -5 -10
-2 -5 12 4 10 4 15 0 11 -4 -4 -13 1 -21 11 -13 15 -13 15 -3 -6z"/>
<path d="M6790 8681 c0 -6 4 -13 10 -16 6 -3 7 1 4 9 -7 18 -14 21 -14 7z"/>
<path d="M6755 8671 c-3 -5 -2 -12 3 -15 5 -3 9 1 9 9 0 17 -3 19 -12 6z"/>
<path d="M6785 8639 c-4 -6 -5 -12 -2 -15 2 -3 7 2 10 11 7 17 1 20 -8 4z"/>
<path d="M6815 8620 c3 -5 8 -10 11 -10 2 0 4 5 4 10 0 6 -5 10 -11 10 -5 0
-7 -4 -4 -10z"/>
<path d="M6875 8621 c-3 -5 -2 -12 3 -15 5 -3 9 1 9 9 0 17 -3 19 -12 6z"/>
<path d="M3300 8606 c0 -2 8 -10 18 -17 15 -13 16 -12 3 4 -13 16 -21 21 -21
13z"/>
<path d="M6802 8596 c7 -8 15 -12 17 -11 5 6 -10 25 -20 25 -5 0 -4 -6 3 -14z"/>
<path d="M6838 8583 c7 -3 16 -2 19 1 4 3 -2 6 -13 5 -11 0 -14 -3 -6 -6z"/>
<path d="M6870 8586 c0 -2 7 -7 16 -10 8 -3 12 -2 9 4 -6 10 -25 14 -25 6z"/>
<path d="M3295 8569 c-4 -6 -5 -12 -2 -15 2 -3 7 2 10 11 7 17 1 20 -8 4z"/>
<path d="M6916 8567 c3 -10 9 -15 12 -12 3 3 0 11 -7 18 -10 9 -11 8 -5 -6z"/>
<path d="M3310 8550 c-6 -11 -16 -17 -22 -14 -7 4 -8 3 -4 -4 8 -13 56 13 56
29 0 16 -19 9 -30 -11z"/>
<path d="M6976 8562 c-3 -5 1 -9 9 -9 8 0 12 4 9 9 -3 4 -7 8 -9 8 -2 0 -6 -4
-9 -8z"/>
<path d="M6949 8520 c-6 -4 1 -7 15 -7 14 0 26 3 26 7 0 3 -7 7 -15 7 -8 0
-19 -4 -26 -7z"/>
<path d="M3137 8503 c-7 -12 11 -53 23 -53 5 0 10 5 10 11 0 5 -4 7 -10 4 -9
-5 -15 15 -11 38 0 4 -1 7 -3 7 -3 0 -7 -3 -9 -7z"/>
<path d="M7025 8479 c-4 -6 -4 -13 -1 -16 3 -4 6 -1 6 6 0 7 5 9 12 5 7 -4 8
-3 4 4 -9 15 -13 15 -21 1z"/>
<path d="M7060 8460 c-13 -8 -10 -14 15 -37 29 -27 29 -27 6 -1 -22 25 -22 27
-4 37 10 6 14 10 8 11 -5 0 -17 -5 -25 -10z"/>
<path d="M7090 8440 c0 -5 5 -10 11 -10 5 0 7 5 4 10 -3 6 -8 10 -11 10 -2 0
-4 -4 -4 -10z"/>
<path d="M2995 8420 c-3 -5 -1 -10 4 -10 6 0 11 5 11 10 0 6 -2 10 -4 10 -3 0
-8 -4 -11 -10z"/>
<path d="M7110 8410 c0 -5 7 -7 15 -4 8 4 15 8 15 10 0 2 -7 4 -15 4 -8 0 -15
-4 -15 -10z"/>
<path d="M3030 8400 c0 -5 5 -10 10 -10 6 0 10 5 10 10 0 6 -4 10 -10 10 -5 0
-10 -4 -10 -10z"/>
<path d="M7176 8402 c-3 -5 1 -9 9 -9 8 0 12 4 9 9 -3 4 -7 8 -9 8 -2 0 -6 -4
-9 -8z"/>
<path d="M2935 8380 c-3 -5 -1 -10 4 -10 6 0 11 5 11 10 0 6 -2 10 -4 10 -3 0
-8 -4 -11 -10z"/>
<path d="M7227 8383 c-3 -5 6 -9 20 -10 19 -1 22 1 12 8 -17 11 -26 11 -32 2z"/>
<path d="M2915 8349 c-4 -6 -5 -12 -2 -15 2 -3 7 2 10 11 7 17 1 20 -8 4z"/>
<path d="M7237 8343 c-4 -3 -7 -11 -7 -17 0 -6 5 -5 12 2 6 6 9 14 7 17 -3 3
-9 2 -12 -2z"/>
<path d="M7256 8323 c-6 -14 -5 -15 5 -6 7 7 10 15 7 18 -3 3 -9 -2 -12 -12z"/>
<path d="M2800 8320 c-9 -6 -10 -10 -3 -10 6 0 15 5 18 10 8 12 4 12 -15 0z"/>
<path d="M2845 8320 c-3 -6 1 -7 9 -4 18 7 21 14 7 14 -6 0 -13 -4 -16 -10z"/>
<path d="M2903 8301 c0 -11 5 -18 9 -15 4 3 5 11 1 19 -7 21 -12 19 -10 -4z"/>
<path d="M2845 8300 c-16 -7 -17 -9 -3 -9 9 -1 20 4 23 9 7 11 7 11 -20 0z"/>
<path d="M2879 8298 c-1 -7 -1 -16 0 -20 0 -5 -3 -8 -9 -8 -5 0 -10 -5 -10
-12 0 -9 3 -9 12 0 12 12 22 52 13 52 -3 0 -6 -6 -6 -12z"/>
<path d="M2786 8278 c3 -4 9 -8 15 -8 5 0 9 4 9 8 0 5 -7 9 -15 9 -8 0 -12 -4
-9 -9z"/>
<path d="M7330 8280 c-9 -6 -10 -10 -3 -10 6 0 15 5 18 10 8 12 4 12 -15 0z"/>
<path d="M7450 8259 c0 -5 5 -7 10 -4 6 3 10 8 10 11 0 2 -4 4 -10 4 -5 0 -10
-5 -10 -11z"/>
<path d="M2709 8243 c-13 -16 -12 -17 4 -4 9 7 17 15 17 17 0 8 -8 3 -21 -13z"/>
<path d="M7375 8239 c-3 -4 0 -11 6 -15 8 -4 9 -3 5 4 -11 18 5 14 19 -5 9
-13 14 -13 20 -3 5 9 4 11 -3 6 -7 -4 -12 -3 -12 3 0 5 6 11 13 14 6 2 0 4
-16 4 -15 0 -30 -3 -32 -8z"/>
<path d="M7515 8231 c-3 -5 -2 -12 3 -15 5 -3 9 1 9 9 0 17 -3 19 -12 6z"/>
<path d="M2747 8199 c4 -13 8 -18 11 -10 2 7 -1 18 -6 23 -8 8 -9 4 -5 -13z"/>
<path d="M7435 8210 c-3 -5 -1 -10 4 -10 6 0 11 5 11 10 0 6 -2 10 -4 10 -3 0
-8 -4 -11 -10z"/>
<path d="M2686 8198 c3 -5 10 -6 15 -3 13 9 11 12 -6 12 -8 0 -12 -4 -9 -9z"/>
<path d="M7464 8191 c1 -17 26 -28 26 -11 0 6 -4 9 -9 5 -5 -3 -11 0 -14 7 -2
9 -4 8 -3 -1z"/>
<path d="M7497 8199 c7 -7 15 -10 18 -7 3 3 -2 9 -12 12 -14 6 -15 5 -6 -5z"/>
<path d="M7500 8162 c0 -5 7 -9 15 -9 8 0 15 4 15 9 0 4 -7 8 -15 8 -8 0 -15
-4 -15 -8z"/>
<path d="M2590 8145 c0 -5 5 -17 10 -25 5 -8 10 -10 10 -5 0 6 -5 17 -10 25
-5 8 -10 11 -10 5z"/>
<path d="M7552 8136 c7 -8 15 -12 17 -11 5 6 -10 25 -20 25 -5 0 -4 -6 3 -14z"/>
<path d="M7653 8115 c0 -8 4 -12 9 -9 4 3 8 9 8 15 0 5 -4 9 -8 9 -5 0 -9 -7
-9 -15z"/>
<path d="M7610 8103 c0 -5 6 -17 13 -27 11 -14 18 -16 32 -9 12 7 14 13 6 17
-6 4 -11 2 -11 -3 0 -6 -4 -11 -10 -11 -5 0 -10 6 -10 14 0 8 -4 18 -10 21 -5
3 -10 2 -10 -2z"/>
<path d="M7675 8101 c-3 -5 -2 -12 3 -15 5 -3 9 1 9 9 0 17 -3 19 -12 6z"/>
<path d="M2497 8074 c-4 -4 -4 -11 -1 -15 7 -12 34 -11 34 1 0 5 -7 6 -17 3
-11 -4 -14 -3 -9 5 8 13 3 16 -7 6z"/>
<path d="M2436 8057 c3 -10 9 -15 12 -12 3 3 0 11 -7 18 -10 9 -11 8 -5 -6z"/>
<path d="M7767 8059 c7 -7 15 -10 18 -7 3 3 -2 9 -12 12 -14 6 -15 5 -6 -5z"/>
<path d="M7875 8049 c-4 -6 -5 -12 -2 -15 2 -3 7 2 10 11 7 17 1 20 -8 4z"/>
<path d="M2472 8041 c-11 -6 -9 -9 6 -13 15 -4 19 -2 15 8 -6 16 -4 16 -21 5z"/>
<path d="M2355 8023 c3 -3 0 -11 -5 -18 -7 -8 -5 -12 4 -12 14 0 16 22 3 32
-4 3 -5 2 -2 -2z"/>
<path d="M7795 8009 c-11 -16 -1 -19 13 -3 7 8 8 14 3 14 -5 0 -13 -5 -16 -11z"/>
<path d="M7754 7988 c-4 -7 -4 -10 1 -6 4 4 15 2 24 -5 14 -11 14 -10 2 6 -16
20 -18 21 -27 5z"/>
<path d="M7852 7966 c-9 -20 -7 -27 11 -42 12 -11 19 -15 14 -10 -4 5 0 21 9
35 l15 26 -19 -22 c-23 -26 -36 -20 -21 9 6 11 9 22 6 24 -2 2 -9 -7 -15 -20z"/>
<path d="M2270 7960 c0 -5 5 -10 11 -10 5 0 7 5 4 10 -3 6 -8 10 -11 10 -2 0
-4 -4 -4 -10z"/>
<path d="M2297 7951 c-4 -17 -3 -21 5 -13 5 5 8 16 6 23 -3 8 -7 3 -11 -10z"/>
<path d="M7910 7940 c0 -5 5 -10 10 -10 6 0 10 5 10 10 0 6 -4 10 -10 10 -5 0
-10 -4 -10 -10z"/>
<path d="M7980 7940 c-9 -6 -10 -10 -3 -10 6 0 15 5 18 10 8 12 4 12 -15 0z"/>
<path d="M2263 7919 c9 -5 17 -15 17 -21 0 -7 -5 -6 -15 2 -10 9 -15 9 -15 1
0 -6 5 -11 11 -11 5 0 7 -6 4 -12 -4 -7 2 -3 13 9 11 12 23 19 27 15 5 -4 5
-1 1 6 -4 7 -11 10 -16 7 -5 -3 -11 -1 -15 5 -3 5 -12 10 -18 10 -7 0 -4 -5 6
-11z"/>
<path d="M2175 7900 c-3 -5 -1 -10 4 -10 6 0 11 5 11 10 0 6 -2 10 -4 10 -3 0
-8 -4 -11 -10z"/>
<path d="M8010 7900 c0 -5 5 -10 11 -10 5 0 7 5 4 10 -3 6 -8 10 -11 10 -2 0
-4 -4 -4 -10z"/>
<path d="M2206 7878 c3 -4 9 -8 15 -8 5 0 9 4 9 8 0 5 -7 9 -15 9 -8 0 -12 -4
-9 -9z"/>
<path d="M7987 7879 c7 -7 15 -10 18 -7 3 3 -2 9 -12 12 -14 6 -15 5 -6 -5z"/>
<path d="M8066 7862 c-3 -5 1 -9 9 -9 8 0 12 4 9 9 -3 4 -7 8 -9 8 -2 0 -6 -4
-9 -8z"/>
<path d="M2173 7841 c0 -11 5 -18 9 -15 4 3 5 11 1 19 -7 21 -12 19 -10 -4z"/>
<path d="M7989 7847 c14 -14 41 -18 41 -6 0 5 -3 9 -7 10 -5 0 -16 2 -27 4
-14 3 -16 1 -7 -8z"/>
<path d="M8096 7842 c-3 -4 4 -9 15 -9 23 -2 25 3 4 10 -8 4 -16 3 -19 -1z"/>
<path d="M2150 7831 c0 -7 -5 -9 -12 -5 -7 5 -8 3 -3 -5 5 -9 10 -10 18 -2 6
6 8 14 4 18 -4 3 -7 1 -7 -6z"/>
<path d="M8058 7828 c10 -13 10 -17 0 -20 -9 -3 -9 -6 0 -12 7 -4 12 -2 12 4
0 6 5 8 10 5 6 -3 10 -2 10 2 0 5 -10 14 -22 22 -21 13 -22 13 -10 -1z"/>
<path d="M1994 7788 c-19 -23 -19 -23 2 -5 11 9 24 14 29 10 4 -5 5 -2 1 5 -9
16 -10 16 -32 -10z"/>
<path d="M2050 7800 c-9 -6 -10 -10 -3 -10 6 0 15 5 18 10 8 12 4 12 -15 0z"/>
<path d="M8133 7795 c0 -7 6 -11 14 -8 7 3 13 6 13 8 0 2 -6 5 -13 8 -8 3 -14
-1 -14 -8z"/>
<path d="M2014 7769 c-3 -6 -2 -15 3 -20 5 -5 9 -1 9 11 0 23 -2 24 -12 9z"/>
<path d="M8199 7748 c7 -10 17 -16 21 -13 5 3 10 0 12 -7 3 -8 6 -6 10 4 5 11
2 15 -10 13 -9 -1 -24 3 -32 9 -13 10 -13 9 -1 -6z"/>
<path d="M8184 7725 c27 -23 40 -29 50 -22 3 1 17 -9 32 -23 15 -14 24 -19 20
-12 -4 6 -3 12 2 12 5 0 14 -11 22 -24 11 -22 15 -23 27 -10 8 8 19 14 25 14
6 0 9 3 6 6 -4 3 -15 1 -27 -5 -17 -9 -22 -8 -31 10 -7 12 -18 18 -26 15 -8
-3 -17 1 -21 10 -3 8 -12 13 -19 10 -7 -3 -27 6 -43 19 -16 14 -33 25 -37 25
-5 0 4 -11 20 -25z"/>
<path d="M1983 7715 c0 -8 4 -12 9 -9 5 3 6 10 3 15 -9 13 -12 11 -12 -6z"/>
<path d="M8270 7721 c0 -6 4 -13 10 -16 6 -3 7 1 4 9 -7 18 -14 21 -14 7z"/>
<path d="M8314 7705 c1 -8 8 -21 16 -28 12 -10 12 -9 2 4 -6 9 -9 18 -6 21 3
3 1 9 -4 12 -6 3 -9 -1 -8 -9z"/>
<path d="M8390 7706 c0 -2 7 -7 16 -10 8 -3 12 -2 9 4 -6 10 -25 14 -25 6z"/>
<path d="M1780 7660 c-9 -6 -10 -10 -3 -10 6 0 15 5 18 10 8 12 4 12 -15 0z"/>
<path d="M1810 7640 c0 -5 5 -10 10 -10 6 0 10 5 10 10 0 6 -4 10 -10 10 -5 0
-10 -4 -10 -10z"/>
<path d="M1845 7640 c3 -5 11 -10 16 -10 6 0 7 5 4 10 -3 6 -11 10 -16 10 -6
0 -7 -4 -4 -10z"/>
<path d="M8370 7645 c0 -7 30 -13 34 -7 3 4 -4 9 -15 9 -10 1 -19 0 -19 -2z"/>
<path d="M8433 7636 c1 -6 -5 -9 -13 -8 -8 2 -11 0 -7 -4 4 -4 15 -9 23 -10 9
-1 13 0 10 3 -3 4 -1 11 4 18 7 8 5 12 -5 12 -7 0 -13 -5 -12 -11z"/>
<path d="M1735 7610 c-4 -6 -10 -8 -15 -5 -11 7 -7 -22 5 -32 4 -4 5 -2 1 5
-4 6 -3 12 2 12 6 0 12 7 16 15 6 17 0 20 -9 5z"/>
<path d="M8486 7567 c-16 -12 -16 -13 2 -14 10 -1 19 5 19 13 0 17 1 17 -21 1z"/>
<path d="M1627 7559 c7 -7 15 -10 18 -7 3 3 -2 9 -12 12 -14 6 -15 5 -6 -5z"/>
<path d="M1670 7540 c0 -6 -4 -8 -10 -5 -6 4 -7 -1 -3 -11 4 -10 2 -15 -4 -11
-5 3 -10 0 -10 -8 0 -19 0 -19 25 10 12 13 17 27 12 30 -6 4 -10 1 -10 -5z"/>
<path d="M1573 7515 c-4 -5 -3 -7 2 -3 4 4 14 3 20 -2 9 -7 14 -7 18 3 6 15
-32 18 -40 2z"/>
<path d="M8616 7501 c-3 -4 6 -7 19 -7 14 0 22 2 19 5 -8 8 -34 10 -38 2z"/>
<path d="M8675 7500 c-3 -5 -1 -10 4 -10 6 0 11 5 11 10 0 6 -2 10 -4 10 -3 0
-8 -4 -11 -10z"/>
<path d="M1580 7480 c6 -11 13 -20 16 -20 2 0 0 9 -6 20 -6 11 -13 20 -16 20
-2 0 0 -9 6 -20z"/>
<path d="M8666 7457 c3 -10 9 -15 12 -12 3 3 0 11 -7 18 -10 9 -11 8 -5 -6z"/>
<path d="M8755 7439 c-3 -4 2 -6 10 -5 21 3 28 13 10 13 -9 0 -18 -4 -20 -8z"/>
<path d="M1497 7429 c-10 -6 -25 -8 -33 -5 -8 3 -13 2 -10 -3 3 -5 22 -9 41
-8 19 1 30 4 24 8 -8 4 -7 8 2 12 8 3 10 6 4 6 -5 0 -18 -4 -28 -10z"/>
<path d="M8710 7420 c0 -5 5 -10 10 -10 6 0 10 5 10 10 0 6 -4 10 -10 10 -5 0
-10 -4 -10 -10z"/>
<path d="M1354 7409 c-3 -6 -2 -15 3 -20 5 -5 9 -1 9 11 0 23 -2 24 -12 9z"/>
<path d="M8782 7400 c13 -20 28 -27 28 -12 0 4 -9 13 -20 20 -19 12 -20 11 -8
-8z"/>
<path d="M1400 7400 c-9 -6 -10 -10 -3 -10 6 0 15 5 18 10 8 12 4 12 -15 0z"/>
<path d="M8807 7356 c-4 -10 -1 -13 9 -9 7 3 14 9 14 14 0 14 -17 10 -23 -5z"/>
<path d="M1247 7339 c7 -7 15 -10 18 -7 3 3 -2 9 -12 12 -14 6 -15 5 -6 -5z"/>
<path d="M8913 7330 c-1 -11 2 -22 6 -24 4 -3 7 4 6 14 -2 27 -10 33 -12 10z"/>
<path d="M1280 7315 c-7 -9 -11 -17 -9 -20 3 -2 10 5 17 15 14 24 10 26 -8 5z"/>
<path d="M1231 7274 c0 -11 3 -14 6 -6 3 7 2 16 -1 19 -3 4 -6 -2 -5 -13z"/>
<path d="M8940 7285 c0 -7 30 -13 34 -7 3 4 -4 9 -15 9 -10 1 -19 0 -19 -2z"/>
<path d="M1156 7262 c-2 -4 2 -15 9 -25 11 -15 13 -15 18 -2 4 8 1 14 -6 12
-7 -1 -11 4 -9 11 2 13 -4 16 -12 4z"/>
<path d="M8988 7248 c2 -10 6 -18 7 -18 1 0 5 8 7 18 3 11 0 19 -7 19 -7 0
-10 -8 -7 -19z"/>
<path d="M9016 7255 c-6 -16 19 -33 31 -21 4 3 -1 6 -10 6 -10 0 -14 5 -11 15
4 8 4 15 1 15 -3 0 -8 -7 -11 -15z"/>
<path d="M1207 7244 c3 -7 -1 -14 -8 -14 -7 0 -10 -2 -7 -5 7 -7 38 5 38 15 0
4 -7 10 -14 13 -10 4 -13 1 -9 -9z"/>
<path d="M9053 7218 c-3 -6 -1 -8 4 -5 6 4 14 0 17 -9 10 -25 7 -27 -11 -13
-16 13 -17 12 -5 -3 13 -17 36 -18 49 -3 4 4 3 5 -3 2 -7 -4 -15 0 -18 9 -9
23 -8 26 7 18 6 -4 8 -3 4 1 -12 13 -36 15 -44 3z"/>
<path d="M9135 7220 c-3 -5 -1 -10 4 -10 6 0 11 5 11 10 0 6 -2 10 -4 10 -3 0
-8 -4 -11 -10z"/>
<path d="M1144 7202 c3 -18 18 -20 24 -4 1 5 -4 12 -12 15 -9 4 -13 0 -12 -11z"/>
<path d="M1086 7198 c3 -4 9 -8 15 -8 5 0 9 4 9 8 0 5 -7 9 -15 9 -8 0 -12 -4
-9 -9z"/>
<path d="M1067 7179 c7 -9 10 -19 6 -22 -3 -4 -2 -7 4 -7 6 0 14 8 17 17 4 10
4 14 0 10 -4 -4 -14 -1 -23 6 -14 10 -14 10 -4 -4z"/>
<path d="M1026 7161 c-12 -13 -14 -21 -6 -26 6 -3 10 -3 9 2 -4 22 3 24 24 7
22 -19 22 -19 4 2 -9 11 -14 24 -10 27 3 4 4 7 1 7 -3 0 -13 -9 -22 -19z"/>
<path d="M936 7147 c3 -10 9 -15 12 -12 3 3 0 11 -7 18 -10 9 -11 8 -5 -6z"/>
<path d="M9210 7146 c0 -2 7 -7 16 -10 8 -3 12 -2 9 4 -6 10 -25 14 -25 6z"/>
<path d="M9259 7148 c-5 -15 -4 -50 1 -53 3 -2 6 9 6 26 0 24 -3 37 -7 27z"/>
<path d="M997 7122 c8 -5 9 -13 3 -22 -7 -10 -10 -11 -10 -2 0 6 -5 12 -11 12
-8 0 -7 -5 2 -16 12 -14 14 -14 26 2 13 18 9 34 -10 34 -9 0 -9 -2 0 -8z"/>
<path d="M9185 7121 c-6 -11 13 -26 22 -17 4 3 0 6 -8 6 -11 0 -11 2 1 10 9 6
10 10 3 10 -6 0 -14 -4 -18 -9z"/>
<path d="M893 7095 c0 -8 4 -12 9 -9 5 3 6 10 3 15 -9 13 -12 11 -12 -6z"/>
<path d="M933 7078 c1 -7 -4 -12 -10 -10 -7 1 -13 -2 -13 -8 0 -13 17 -13 26
1 5 8 8 8 14 0 5 -9 10 -8 19 3 9 11 9 16 0 22 -8 4 -9 3 -5 -4 4 -7 2 -12 -3
-12 -6 0 -11 5 -11 10 0 6 -4 10 -10 10 -5 0 -9 -6 -7 -12z"/>
<path d="M9230 7079 c0 -5 5 -7 10 -4 6 3 10 8 10 11 0 2 -4 4 -10 4 -5 0 -10
-5 -10 -11z"/>
<path d="M9333 7075 c0 -8 4 -12 9 -9 5 3 6 10 3 15 -9 13 -12 11 -12 -6z"/>
<path d="M9310 7040 c0 -5 5 -10 10 -10 6 0 10 5 10 10 0 6 -4 10 -10 10 -5 0
-10 -4 -10 -10z"/>
<path d="M9346 7019 c2 -4 -1 -9 -8 -11 -7 -3 -8 -7 -3 -10 6 -2 18 3 27 13
16 17 16 18 -2 16 -10 -1 -17 -4 -14 -8z"/>
<path d="M9393 7014 c0 -9 4 -11 12 -4 7 5 14 9 16 7 2 -1 3 0 1 2 -7 11 -29
7 -29 -5z"/>
<path d="M786 6998 c3 -5 10 -6 15 -3 13 9 11 12 -6 12 -8 0 -12 -4 -9 -9z"/>
<path d="M840 6999 c0 -5 -4 -8 -9 -4 -5 3 -12 1 -15 -4 -4 -5 2 -8 11 -7 15
3 33 26 19 26 -3 0 -6 -5 -6 -11z"/>
<path d="M755 6981 c-3 -5 -2 -12 3 -15 5 -3 9 1 9 9 0 17 -3 19 -12 6z"/>
<path d="M9420 6986 c0 -2 8 -10 18 -17 15 -13 16 -12 3 4 -13 16 -21 21 -21
13z"/>
<path d="M735 6953 c2 -10 4 -20 5 -23 1 -3 2 -9 1 -14 -1 -5 5 -4 13 4 9 7
16 18 16 24 0 6 -5 4 -10 -4 -9 -14 -11 -13 -14 9 0 5 -4 12 -8 16 -3 4 -5 -1
-3 -12z"/>
<path d="M9513 6945 c0 -8 4 -12 9 -9 5 3 6 10 3 15 -9 13 -12 11 -12 -6z"/>
<path d="M9570 6900 c0 -5 5 -10 11 -10 5 0 7 5 4 10 -3 6 -8 10 -11 10 -2 0
-4 -4 -4 -10z"/>
<path d="M640 6870 c0 -5 -8 -7 -17 -3 -12 3 -10 0 5 -11 12 -10 19 -22 16
-28 -5 -7 -2 -8 5 -3 9 5 9 11 3 17 -6 6 -8 17 -5 24 3 8 2 14 -1 14 -3 0 -6
-4 -6 -10z"/>
<path d="M610 6840 c0 -5 5 -10 11 -10 5 0 7 5 4 10 -3 6 -8 10 -11 10 -2 0
-4 -4 -4 -10z"/>
<path d="M9582 6845 c3 -3 16 -8 28 -10 12 -2 20 -1 16 2 -4 4 -16 8 -28 10
-12 2 -19 1 -16 -2z"/>
<path d="M9575 6820 c3 -5 8 -10 11 -10 2 0 4 5 4 10 0 6 -5 10 -11 10 -5 0
-7 -4 -4 -10z"/>
<path d="M9657 6795 c-4 -8 -3 -16 1 -19 4 -3 9 4 9 15 2 23 -3 25 -10 4z"/>
<path d="M519 6768 c-8 -26 -5 -36 8 -31 13 5 13 2 4 -15 -6 -12 -19 -25 -29
-31 -9 -5 -13 -13 -9 -17 7 -7 27 13 48 49 7 13 6 19 -6 23 -8 3 -12 10 -9 15
3 5 3 9 0 9 -3 0 -6 -1 -7 -2z"/>
<path d="M9675 6759 c-4 -6 -5 -12 -2 -15 2 -3 7 2 10 11 7 17 1 20 -8 4z"/>
<path d="M9696 6738 c3 -5 10 -6 15 -3 13 9 11 12 -6 12 -8 0 -12 -4 -9 -9z"/>
<path d="M470 6721 c0 -6 4 -12 8 -15 5 -3 9 1 9 9 0 8 -4 15 -9 15 -4 0 -8
-4 -8 -9z"/>
<path d="M9716 6722 c-3 -5 1 -9 9 -9 8 0 12 4 9 9 -3 4 -7 8 -9 8 -2 0 -6 -4
-9 -8z"/>
<path d="M9716 6685 c-3 -8 -1 -15 4 -15 6 0 10 7 10 15 0 8 -2 15 -4 15 -2 0
-6 -7 -10 -15z"/>
<path d="M9731 6656 c-9 -10 -7 -17 6 -27 11 -9 14 -10 9 -1 -4 6 -3 12 3 12
5 0 11 -5 13 -10 2 -6 9 0 17 12 9 15 9 19 1 11 -14 -13 -43 -6 -34 8 8 14 -2
11 -15 -5z"/>
<path d="M9786 6599 c2 -4 13 -7 24 -6 23 2 17 10 -10 12 -10 1 -17 -2 -14 -6z"/>
<path d="M416 6583 c-6 -14 -5 -15 5 -6 7 7 10 15 7 18 -3 3 -9 -2 -12 -12z"/>
<path d="M9812 6571 c-11 -6 -10 -10 0 -19 11 -8 14 -7 14 9 0 10 0 19 -1 19
0 0 -6 -4 -13 -9z"/>
<path d="M395 6551 c-3 -5 0 -13 6 -17 7 -4 9 -3 5 4 -3 5 0 13 6 15 9 4 10 6
1 6 -6 1 -14 -3 -18 -8z"/>
<path d="M362 6498 c-7 -7 -12 -17 -12 -22 0 -6 5 -3 11 7 6 9 15 14 21 11 7
-4 8 -2 4 4 -9 15 -9 15 -24 0z"/>
<path d="M9840 6466 c0 -2 7 -9 15 -16 13 -11 14 -10 9 4 -5 14 -24 23 -24 12z"/>
<path d="M9876 6458 c3 -5 10 -6 15 -3 13 9 11 12 -6 12 -8 0 -12 -4 -9 -9z"/>
<path d="M350 6456 c0 -2 8 -10 18 -17 15 -13 16 -12 3 4 -13 16 -21 21 -21
13z"/>
<path d="M316 6433 c-6 -14 -5 -15 5 -6 7 7 10 15 7 18 -3 3 -9 -2 -12 -12z"/>
<path d="M9843 6433 c11 -12 16 -27 12 -32 -3 -6 -4 -11 -1 -11 3 0 11 10 17
23 6 12 8 19 4 14 -5 -4 -18 1 -29 10 -21 18 -21 18 -3 -4z"/>
<path d="M315 6401 c-3 -5 -2 -12 3 -15 5 -3 9 1 9 9 0 17 -3 19 -12 6z"/>
<path d="M350 6390 c0 -5 5 -10 11 -10 5 0 7 5 4 10 -3 6 -8 10 -11 10 -2 0
-4 -4 -4 -10z"/>
<path d="M9866 6374 c-7 -18 10 -44 27 -44 6 0 2 7 -9 16 -13 11 -15 17 -6 20
14 6 16 24 3 24 -5 0 -12 -7 -15 -16z"/>
<path d="M330 6360 c0 -5 5 -10 10 -10 6 0 10 5 10 10 0 6 -4 10 -10 10 -5 0
-10 -4 -10 -10z"/>
<path d="M9896 6362 c-3 -5 1 -9 9 -9 8 0 12 4 9 9 -3 4 -7 8 -9 8 -2 0 -6 -4
-9 -8z"/>
<path d="M317 6333 c-4 -3 -7 -11 -7 -17 0 -6 5 -5 12 2 6 6 9 14 7 17 -3 3
-9 2 -12 -2z"/>
<path d="M9911 6292 c-8 -15 -6 -18 14 -18 13 0 21 4 19 8 -3 5 -10 5 -16 2
-7 -5 -9 -1 -5 9 9 23 0 22 -12 -1z"/>
<path d="M9936 6242 c-3 -5 1 -9 9 -9 8 0 12 4 9 9 -3 4 -7 8 -9 8 -2 0 -6 -4
-9 -8z"/>
<path d="M315 6210 c-4 -6 -11 -7 -17 -4 -7 4 -8 2 -4 -4 7 -12 36 -5 36 9 0
12 -7 11 -15 -1z"/>
<path d="M9900 6200 c8 -5 20 -10 25 -10 6 0 3 5 -5 10 -8 5 -19 10 -25 10 -5
0 -3 -5 5 -10z"/>
<path d="M325 6182 c-5 -4 -17 -16 -25 -27 -11 -15 -7 -14 13 4 24 22 32 31
25 31 -2 0 -7 -4 -13 -8z"/>
<path d="M9903 6128 c-1 -11 1 -16 5 -12 4 5 11 12 15 15 5 3 2 9 -5 12 -9 3
-14 -3 -15 -15z"/>
<path d="M290 6099 c0 -5 5 -7 10 -4 6 3 10 8 10 11 0 2 -4 4 -10 4 -5 0 -10
-5 -10 -11z"/>
<path d="M9936 6094 c-8 -20 -8 -24 2 -24 4 0 8 9 9 20 2 24 -3 26 -11 4z"/>
<path d="M313 6073 c0 -7 4 -13 8 -13 4 0 9 6 12 13 3 8 0 14 -7 14 -7 0 -13
-6 -13 -14z"/>
<path d="M290 6061 c0 -6 4 -13 10 -16 6 -3 7 1 4 9 -7 18 -14 21 -14 7z"/>
<path d="M9910 6050 c0 -5 5 -10 11 -10 5 0 7 5 4 10 -3 6 -8 10 -11 10 -2 0
-4 -4 -4 -10z"/>
<path d="M310 6020 c0 -5 7 -7 15 -4 8 4 15 8 15 10 0 2 -7 4 -15 4 -8 0 -15
-4 -15 -10z"/>
<path d="M285 6000 c10 -11 20 -20 23 -20 3 0 -3 9 -13 20 -10 11 -20 20 -23
20 -3 0 3 -9 13 -20z"/>
<path d="M9910 5991 c0 -6 5 -13 12 -17 6 -4 8 -3 4 4 -3 5 0 13 6 15 8 3 6 6
-4 6 -10 1 -18 -3 -18 -8z"/>
<path d="M310 5960 c0 -5 7 -7 15 -4 8 4 15 8 15 10 0 2 -7 4 -15 4 -8 0 -15
-4 -15 -10z"/>
<path d="M9910 5900 c0 -5 9 -8 20 -7 21 1 18 10 -5 13 -8 1 -15 -2 -15 -6z"/>
<path d="M309 5877 c6 -8 7 -18 3 -22 -4 -5 -1 -5 6 -1 10 6 10 11 1 22 -6 8
-14 14 -16 14 -3 0 0 -6 6 -13z"/>
<path d="M9880 5853 c5 -2 8 -8 5 -12 -2 -5 2 -17 11 -27 14 -18 14 -17 3 6
-7 14 -11 27 -10 30 1 2 -2 5 -8 7 -7 1 -8 0 -1 -4z"/>
<path d="M9910 5840 c0 -5 5 -10 11 -10 5 0 7 5 4 10 -3 6 -8 10 -11 10 -2 0
-4 -4 -4 -10z"/>
<path d="M9956 5813 c-6 -14 -5 -15 5 -6 7 7 10 15 7 18 -3 3 -9 -2 -12 -12z"/>
<path d="M9866 5812 c-3 -6 -1 -14 5 -17 14 -9 20 -2 10 14 -6 8 -11 9 -15 3z"/>
<path d="M320 5786 c0 -2 7 -7 16 -10 8 -3 12 -2 9 4 -6 10 -25 14 -25 6z"/>
<path d="M9930 5780 c0 -5 5 -10 11 -10 5 0 7 5 4 10 -3 6 -8 10 -11 10 -2 0
-4 -4 -4 -10z"/>
<path d="M276 5767 c3 -10 9 -15 12 -12 3 3 0 11 -7 18 -10 9 -11 8 -5 -6z"/>
<path d="M315 5761 c-3 -5 -2 -12 3 -15 5 -3 9 1 9 9 0 17 -3 19 -12 6z"/>
<path d="M9935 5749 c-4 -6 -5 -12 -2 -15 2 -3 7 2 10 11 7 17 1 20 -8 4z"/>
<path d="M9895 5739 c-4 -6 -4 -13 -1 -16 3 -4 6 -1 6 6 0 7 5 9 12 5 7 -4 8
-3 4 4 -9 15 -13 15 -21 1z"/>
<path d="M333 5685 c0 -7 6 -11 14 -8 7 3 13 6 13 8 0 2 -6 5 -13 8 -8 3 -14
-1 -14 -8z"/>
<path d="M9935 5691 c-3 -5 -2 -12 3 -15 5 -3 9 1 9 9 0 17 -3 19 -12 6z"/>
<path d="M9896 5662 c-3 -5 1 -9 9 -9 8 0 12 4 9 9 -3 4 -7 8 -9 8 -2 0 -6 -4
-9 -8z"/>
<path d="M334 5641 c0 -19 31 -18 43 2 3 6 1 7 -6 3 -6 -4 -17 -3 -24 3 -9 7
-13 5 -13 -8z"/>
<path d="M9891 5604 c0 -11 3 -14 6 -6 3 7 2 16 -1 19 -3 4 -6 -2 -5 -13z"/>
<path d="M9865 5581 c-2 -5 3 -15 12 -22 9 -8 14 -9 10 -2 -4 6 -2 13 5 15 8
3 6 7 -5 11 -9 3 -19 2 -22 -2z"/>
<path d="M375 5569 c-10 -15 3 -25 16 -12 7 7 7 13 1 17 -6 3 -14 1 -17 -5z"/>
<path d="M9896 5533 c-6 -14 -5 -15 5 -6 7 7 10 15 7 18 -3 3 -9 -2 -12 -12z"/>
<path d="M362 5520 c0 -14 2 -19 5 -12 2 6 2 18 0 25 -3 6 -5 1 -5 -13z"/>
<path d="M9854 5477 c0 -16 6 -23 21 -24 18 -2 18 -1 3 8 -10 5 -15 16 -12 24
4 8 2 15 -3 15 -5 0 -9 -10 -9 -23z"/>
<path d="M390 5449 c0 -5 5 -7 10 -4 6 3 10 8 10 11 0 2 -4 4 -10 4 -5 0 -10
-5 -10 -11z"/>
<path d="M9873 5395 c0 -14 3 -25 6 -25 4 0 7 11 7 25 0 14 -3 25 -7 25 -3 0
-6 -11 -6 -25z"/>
<path d="M381 5371 c-11 -7 -9 -10 8 -16 12 -3 18 -11 15 -17 -5 -7 -2 -8 6
-3 10 6 10 11 -3 20 -9 7 -14 15 -10 18 9 10 1 8 -16 -2z"/>
<path d="M359 5333 c-12 -16 -12 -17 2 -6 9 7 20 9 24 5 5 -4 5 -1 1 6 -9 16
-11 15 -27 -5z"/>
<path d="M330 5299 c0 -5 5 -7 10 -4 6 3 10 8 10 11 0 2 -4 4 -10 4 -5 0 -10
-5 -10 -11z"/>
<path d="M9873 5232 c-8 -14 -8 -19 1 -19 7 0 13 9 13 19 1 10 1 18 0 18 -1 0
-7 -8 -14 -18z"/>
<path d="M359 5188 c-7 -24 -4 -40 9 -50 15 -11 15 -11 6 2 -6 8 -10 23 -9 33
3 13 -2 26 -6 15z"/>
<path d="M392 5174 c10 -10 20 -16 22 -13 3 3 -5 11 -17 18 -21 13 -21 12 -5
-5z"/>
<path d="M9890 5180 c0 -5 5 -10 11 -10 5 0 7 5 4 10 -3 6 -8 10 -11 10 -2 0
-4 -4 -4 -10z"/>
<path d="M9855 5121 c-3 -5 -2 -12 3 -15 5 -3 9 1 9 9 0 17 -3 19 -12 6z"/>
<path d="M388 5103 c6 -2 18 -2 25 0 6 3 1 5 -13 5 -14 0 -19 -2 -12 -5z"/>
<path d="M9820 5100 c0 -6 7 -10 15 -10 8 0 15 2 15 4 0 2 -7 6 -15 10 -8 3
-15 1 -15 -4z"/>
<path d="M407 5075 c-4 -8 -1 -17 6 -21 7 -4 9 -4 5 1 -4 4 -3 14 3 22 7 8 8
13 1 13 -5 0 -12 -7 -15 -15z"/>
<path d="M9824 5069 c-10 -17 9 -30 26 -18 13 9 12 10 -2 5 -20 -6 -25 10 -5
17 9 4 9 6 0 6 -6 1 -15 -4 -19 -10z"/>
<path d="M9874 5040 c0 -13 4 -16 10 -10 7 7 7 13 0 20 -6 6 -10 3 -10 -10z"/>
<path d="M377 5033 c3 -7 6 -13 8 -13 2 0 5 6 8 13 3 8 -1 14 -8 14 -7 0 -11
-6 -8 -14z"/>
<path d="M9820 5018 c0 -4 5 -8 11 -8 5 0 7 -5 4 -10 -4 -6 -11 -8 -16 -5 -5
3 -6 -1 -2 -11 5 -13 7 -13 14 -3 4 8 7 18 7 23 0 5 6 12 14 17 9 6 6 8 -10 6
-12 0 -22 -5 -22 -9z"/>
<path d="M414 4999 c-3 -6 -1 -16 4 -21 8 -8 11 -5 9 11 -1 24 -3 25 -13 10z"/>
<path d="M9848 4963 c6 -2 9 -10 6 -15 -4 -7 -2 -8 5 -4 13 9 5 26 -12 25 -9
0 -8 -2 1 -6z"/>
<path d="M376 4899 c2 -4 14 -5 26 -1 16 4 19 2 13 -8 -5 -9 -4 -11 4 -6 18
11 3 26 -24 24 -13 -1 -22 -5 -19 -9z"/>
<path d="M9831 4887 c-8 -10 -7 -14 2 -14 8 0 14 6 14 14 0 7 -1 13 -2 13 -2
0 -8 -6 -14 -13z"/>
<path d="M434 4879 c-3 -6 -1 -16 4 -21 8 -8 11 -5 9 11 -1 24 -3 25 -13 10z"/>
<path d="M9810 4845 c0 -8 4 -15 8 -15 5 0 9 7 9 15 0 8 -4 15 -9 15 -4 0 -8
-7 -8 -15z"/>
<path d="M410 4840 c0 -5 5 -10 10 -10 6 0 10 5 10 10 0 6 -4 10 -10 10 -5 0
-10 -4 -10 -10z"/>
<path d="M9798 4813 c7 -3 16 -2 19 1 4 3 -2 6 -13 5 -11 0 -14 -3 -6 -6z"/>
<path d="M9835 4809 c-4 -6 -5 -12 -2 -15 2 -3 7 2 10 11 7 17 1 20 -8 4z"/>
<path d="M430 4782 c0 -5 7 -9 15 -9 8 0 12 4 9 9 -3 4 -9 8 -15 8 -5 0 -9 -4
-9 -8z"/>
<path d="M9789 4773 c-13 -17 -13 -17 6 -3 11 8 22 16 24 17 2 2 0 3 -6 3 -6
0 -17 -8 -24 -17z"/>
<path d="M9855 4771 c-3 -5 -2 -12 3 -15 5 -3 9 1 9 9 0 17 -3 19 -12 6z"/>
<path d="M9815 4760 c3 -5 8 -10 11 -10 2 0 4 5 4 10 0 6 -5 10 -11 10 -5 0
-7 -4 -4 -10z"/>
<path d="M9789 4737 c5 -5 8 -15 7 -21 -2 -6 -1 -8 1 -3 3 4 10 4 16 0 8 -5 8
-2 0 9 -7 8 -11 17 -8 20 3 2 -2 5 -10 5 -10 0 -12 -4 -6 -10z"/>
<path d="M436 4728 c3 -5 10 -6 15 -3 13 9 11 12 -6 12 -8 0 -12 -4 -9 -9z"/>
<path d="M442 4701 c-11 -6 -10 -10 0 -19 11 -8 14 -7 14 9 0 10 0 19 -1 19 0
0 -6 -4 -13 -9z"/>
<path d="M442 4644 c-7 -8 -8 -14 -3 -14 10 0 25 19 20 25 -2 1 -10 -3 -17
-11z"/>
<path d="M9790 4649 c0 -5 -6 -7 -12 -3 -7 4 -9 3 -5 -1 13 -15 36 -14 30 1
-6 17 -13 18 -13 3z"/>
<path d="M466 4621 c-4 -5 3 -7 14 -4 23 6 26 13 6 13 -8 0 -17 -4 -20 -9z"/>
<path d="M482 4601 c-11 -6 -9 -9 6 -13 15 -4 19 -2 15 8 -6 16 -4 16 -21 5z"/>
<path d="M9774 4598 c-4 -5 -3 -12 0 -15 3 -4 6 -1 6 5 0 6 7 9 15 6 8 -4 15
-2 15 3 0 12 -29 13 -36 1z"/>
<path d="M481 4556 c-9 -10 -8 -15 2 -19 8 -3 13 3 13 14 0 23 0 23 -15 5z"/>
<path d="M9773 4553 c0 -9 4 -10 14 -2 7 6 13 12 13 14 0 1 -6 2 -13 2 -8 0
-14 -6 -14 -14z"/>
<path d="M500 4520 c-8 -5 -10 -10 -5 -10 6 0 17 5 25 10 8 5 11 10 5 10 -5 0
-17 -5 -25 -10z"/>
<path d="M9830 4519 c0 -5 5 -7 10 -4 6 3 10 8 10 11 0 2 -4 4 -10 4 -5 0 -10
-5 -10 -11z"/>
<path d="M519 4508 c-6 -19 -4 -58 4 -58 5 0 7 6 4 14 -3 7 -1 18 5 24 6 6 6
12 -1 16 -6 4 -11 6 -12 4z"/>
<path d="M476 4458 c3 -5 10 -6 15 -3 13 9 11 12 -6 12 -8 0 -12 -4 -9 -9z"/>
<path d="M535 4441 c-3 -6 3 -9 14 -8 11 0 17 5 15 9 -7 11 -22 10 -29 -1z"/>
<path d="M9700 4426 c0 -2 7 -7 16 -10 8 -3 12 -2 9 4 -6 10 -25 14 -25 6z"/>
<path d="M510 4401 c0 -6 4 -12 8 -15 5 -3 9 1 9 9 0 8 -4 15 -9 15 -4 0 -8
-4 -8 -9z"/>
<path d="M9709 4383 c-13 -16 -12 -17 4 -4 9 7 17 15 17 17 0 8 -8 3 -21 -13z"/>
<path d="M9666 4381 c-4 -5 -2 -12 3 -15 5 -4 12 -2 15 3 4 5 2 12 -3 15 -5 4
-12 2 -15 -3z"/>
<path d="M9645 4341 c-3 -5 0 -13 6 -17 8 -5 9 -3 4 6 -6 10 -4 12 9 7 10 -4
15 -3 11 3 -8 13 -22 13 -30 1z"/>
<path d="M591 4312 c-7 -14 -6 -19 4 -19 17 0 28 24 15 32 -5 3 -13 -3 -19
-13z"/>
<path d="M591 4253 c6 -7 17 -13 23 -12 7 0 6 2 -2 6 -6 2 -10 8 -8 12 3 4 -1
8 -9 8 -11 0 -12 -4 -4 -14z"/>
<path d="M9615 4240 c3 -5 8 -10 11 -10 2 0 4 5 4 10 0 6 -5 10 -11 10 -5 0
-7 -4 -4 -10z"/>
<path d="M9587 4229 c7 -7 15 -10 18 -7 3 3 -2 9 -12 12 -14 6 -15 5 -6 -5z"/>
<path d="M617 4209 c4 -13 8 -18 11 -10 2 7 -1 18 -6 23 -8 8 -9 4 -5 -13z"/>
<path d="M655 4199 c-4 -6 -3 -15 3 -21 6 -6 11 -4 15 6 7 18 -9 31 -18 15z"/>
<path d="M655 4120 c1 -11 5 -23 9 -27 4 -5 6 -1 4 7 -1 8 2 14 9 15 6 0 13 2
15 5 2 3 1 4 -1 3 -2 -1 -11 2 -21 7 -13 7 -16 5 -15 -10z"/>
<path d="M9540 4126 c0 -2 7 -7 16 -10 8 -3 12 -2 9 4 -6 10 -25 14 -25 6z"/>
<path d="M9516 4107 c3 -10 9 -15 12 -12 3 3 0 11 -7 18 -10 9 -11 8 -5 -6z"/>
<path d="M9484 4088 c-4 -7 -3 -8 4 -4 7 4 12 2 12 -3 0 -6 4 -11 10 -11 5 0
7 7 4 15 -7 18 -20 19 -30 3z"/>
<path d="M9510 4050 c-9 -6 -10 -10 -3 -10 6 0 15 5 18 10 8 12 4 12 -15 0z"/>
<path d="M793 3971 c0 -11 5 -18 9 -15 4 3 5 11 1 19 -7 21 -12 19 -10 -4z"/>
<path d="M755 3961 c-3 -5 -2 -12 3 -15 5 -3 9 1 9 9 0 17 -3 19 -12 6z"/>
<path d="M9397 3953 c4 -11 3 -14 -5 -9 -7 4 -12 3 -12 -3 0 -5 8 -9 19 -8 12
1 17 7 13 19 -2 10 -8 18 -13 18 -5 0 -5 -7 -2 -17z"/>
<path d="M810 3899 c0 -5 5 -7 10 -4 6 3 10 8 10 11 0 2 -4 4 -10 4 -5 0 -10
-5 -10 -11z"/>
<path d="M9376 3901 c-4 -5 3 -7 14 -4 23 6 26 13 6 13 -8 0 -17 -4 -20 -9z"/>
<path d="M857 3894 c7 -3 9 -13 6 -22 -4 -14 -3 -14 5 -2 12 16 7 30 -11 29
-9 0 -9 -2 0 -5z"/>
<path d="M9302 3863 c-15 -16 -26 -27 -24 -26 3 2 10 -5 17 -14 9 -13 14 -13
20 -3 5 9 4 11 -3 6 -7 -4 -12 -2 -12 3 0 6 6 11 13 11 8 0 8 3 -2 9 -11 7 -7
12 15 25 16 8 23 15 17 16 -7 0 -25 -12 -41 -27z"/>
<path d="M9336 3861 c-4 -5 3 -7 14 -4 23 6 26 13 6 13 -8 0 -17 -4 -20 -9z"/>
<path d="M893 3809 c-2 -23 3 -25 10 -4 4 8 3 16 -1 19 -4 3 -9 -4 -9 -15z"/>
<path d="M915 3791 c-3 -5 -2 -12 3 -15 5 -3 9 1 9 9 0 17 -3 19 -12 6z"/>
<path d="M9254 3783 c4 -7 2 -13 -3 -13 -6 0 -11 -4 -11 -8 0 -5 6 -9 14 -9
15 0 16 21 1 34 -4 4 -5 2 -1 -4z"/>
<path d="M991 3764 c0 -11 3 -14 6 -6 3 7 2 16 -1 19 -3 4 -6 -2 -5 -13z"/>
<path d="M1002 3744 c-9 -10 -7 -12 8 -11 11 1 21 6 24 12 6 16 -17 15 -32 -1z"/>
<path d="M1027 3707 c-3 -8 1 -14 8 -14 7 0 11 6 8 14 -3 7 -6 13 -8 13 -2 0
-5 -6 -8 -13z"/>
<path d="M1060 3666 c0 -2 11 -6 25 -8 13 -3 22 -1 19 3 -5 9 -44 13 -44 5z"/>
<path d="M1177 3632 c1 -8 3 -16 3 -18 0 -2 6 -4 14 -4 8 0 17 -6 19 -12 4
-10 6 -10 6 0 1 7 -6 15 -14 18 -8 4 -12 11 -8 17 3 5 1 7 -5 3 -5 -3 -12 -3
-15 1 -2 5 -2 2 0 -5z"/>
<path d="M9105 3620 c-3 -6 1 -7 9 -4 18 7 21 14 7 14 -6 0 -13 -4 -16 -10z"/>
<path d="M1148 3613 c7 -3 16 -2 19 1 4 3 -2 6 -13 5 -11 0 -14 -3 -6 -6z"/>
<path d="M8974 3585 c-12 -8 -24 -12 -26 -9 -3 2 -10 -2 -17 -9 -9 -11 -8 -17
4 -27 10 -9 15 -9 15 -1 0 6 -5 11 -11 11 -5 0 -7 5 -4 10 5 8 12 7 23 -2 10
-7 14 -9 10 -4 -4 5 3 17 15 27 26 22 20 25 -9 4z"/>
<path d="M9073 3575 c0 -8 4 -12 9 -9 5 3 6 10 3 15 -9 13 -12 11 -12 -6z"/>
<path d="M9006 3538 c3 -5 10 -6 15 -3 13 9 11 12 -6 12 -8 0 -12 -4 -9 -9z"/>
<path d="M8915 3520 c3 -5 8 -10 11 -10 2 0 4 5 4 10 0 6 -5 10 -11 10 -5 0
-7 -4 -4 -10z"/>
<path d="M8893 3495 c-3 -9 -3 -18 -1 -21 3 -3 8 4 11 16 6 23 -1 27 -10 5z"/>
<path d="M8910 3486 c0 -2 7 -7 16 -10 8 -3 12 -2 9 4 -6 10 -25 14 -25 6z"/>
<path d="M8820 3466 c0 -2 7 -6 15 -10 8 -3 15 -1 15 4 0 6 -7 10 -15 10 -8 0
-15 -2 -15 -4z"/>
<path d="M1355 3440 c3 -5 8 -10 11 -10 2 0 4 5 4 10 0 6 -5 10 -11 10 -5 0
-7 -4 -4 -10z"/>
<path d="M1410 3439 c0 -5 4 -8 9 -4 6 3 14 -3 20 -12 6 -10 11 -13 11 -7 0
12 -20 34 -32 34 -4 0 -8 -5 -8 -11z"/>
<path d="M1415 3411 c-3 -5 -2 -12 3 -15 5 -3 9 1 9 9 0 17 -3 19 -12 6z"/>
<path d="M8750 3405 c0 -8 4 -15 8 -15 5 0 9 7 9 15 0 8 -4 15 -9 15 -4 0 -8
-7 -8 -15z"/>
<path d="M1464 3398 c-4 -7 -3 -8 5 -4 6 4 20 2 29 -6 15 -12 16 -11 3 5 -16
20 -27 22 -37 5z"/>
<path d="M8694 3399 c1 -7 12 -16 25 -20 14 -6 20 -5 16 1 -3 6 -12 10 -20 10
-7 0 -16 5 -18 10 -3 6 -4 5 -3 -1z"/>
<path d="M8680 3369 c0 -6 -7 -9 -15 -5 -23 9 -18 0 13 -19 15 -10 22 -12 15
-5 -6 7 -9 19 -6 26 3 8 2 14 -1 14 -3 0 -6 -5 -6 -11z"/>
<path d="M8639 3343 c0 -5 -2 -16 -4 -26 -2 -11 -1 -16 3 -13 8 8 14 46 7 46
-3 0 -5 -3 -6 -7z"/>
<path d="M8715 3340 c3 -5 8 -10 11 -10 2 0 4 5 4 10 0 6 -5 10 -11 10 -5 0
-7 -4 -4 -10z"/>
<path d="M8570 3316 c0 -3 9 -10 19 -16 15 -7 22 -7 27 2 4 7 4 10 -1 6 -4 -4
-16 -3 -26 3 -11 5 -19 7 -19 5z"/>
<path d="M1595 3281 c-3 -5 -2 -12 3 -15 5 -3 9 1 9 9 0 17 -3 19 -12 6z"/>
<path d="M1626 3278 c3 -4 9 -8 15 -8 5 0 9 4 9 8 0 5 -7 9 -15 9 -8 0 -12 -4
-9 -9z"/>
<path d="M1711 3278 c-1 -23 15 -32 23 -12 3 8 2 13 -3 9 -5 -3 -12 1 -14 7
-4 8 -6 7 -6 -4z"/>
<path d="M8630 3281 c0 -6 4 -12 8 -15 5 -3 9 1 9 9 0 8 -4 15 -9 15 -4 0 -8
-4 -8 -9z"/>
<path d="M8686 3278 c3 -5 10 -6 15 -3 13 9 11 12 -6 12 -8 0 -12 -4 -9 -9z"/>
<path d="M1681 3241 c-10 -7 -7 -9 12 -8 14 1 23 5 20 10 -6 9 -15 9 -32 -2z"/>
<path d="M8470 3237 c0 -5 6 -7 14 -4 8 3 17 1 20 -6 2 -7 5 -5 5 5 1 11 -6
16 -19 15 -11 -1 -20 -5 -20 -10z"/>
<path d="M1770 3231 c0 -5 5 -13 10 -16 6 -3 10 -2 10 4 0 5 -4 13 -10 16 -5
3 -10 2 -10 -4z"/>
<path d="M1733 3215 c0 -8 4 -12 9 -9 5 3 6 10 3 15 -9 13 -12 11 -12 -6z"/>
<path d="M1800 3211 c0 -10 19 -25 25 -20 1 2 -3 10 -11 17 -8 7 -14 8 -14 3z"/>
<path d="M8471 3204 c0 -11 3 -14 6 -6 3 7 2 16 -1 19 -3 4 -6 -2 -5 -13z"/>
<path d="M1716 3178 c3 -4 11 -5 19 -1 21 7 19 12 -4 10 -11 0 -18 -5 -15 -9z"/>
<path d="M1790 3180 c0 -5 5 -10 11 -10 5 0 7 5 4 10 -3 6 -8 10 -11 10 -2 0
-4 -4 -4 -10z"/>
<path d="M1828 3173 c7 -3 16 -2 19 1 4 3 -2 6 -13 5 -11 0 -14 -3 -6 -6z"/>
<path d="M8456 3167 c3 -10 9 -15 12 -12 3 3 0 11 -7 18 -10 9 -11 8 -5 -6z"/>
<path d="M8353 3146 c-1 -12 1 -15 4 -8 3 6 10 9 15 6 6 -4 8 -2 4 4 -3 5 0
12 6 15 7 3 4 5 -8 4 -13 -1 -20 -8 -21 -21z"/>
<path d="M8395 3151 c-3 -5 -2 -12 3 -15 5 -3 9 1 9 9 0 17 -3 19 -12 6z"/>
<path d="M8315 3139 c-5 -8 -4 -10 3 -5 8 5 12 -1 13 -16 1 -18 2 -19 6 -4 6
23 -12 43 -22 25z"/>
<path d="M1955 3119 c-4 -6 -3 -15 3 -21 6 -6 11 -4 15 6 7 18 -9 31 -18 15z"/>
<path d="M8365 3120 c-3 -6 1 -7 9 -4 18 7 21 14 7 14 -6 0 -13 -4 -16 -10z"/>
<path d="M8425 3120 c-3 -6 1 -7 9 -4 18 7 21 14 7 14 -6 0 -13 -4 -16 -10z"/>
<path d="M1935 3080 c3 -5 8 -10 11 -10 2 0 4 5 4 10 0 6 -5 10 -11 10 -5 0
-7 -4 -4 -10z"/>
<path d="M8355 3080 c3 -5 8 -10 11 -10 2 0 4 5 4 10 0 6 -5 10 -11 10 -5 0
-7 -4 -4 -10z"/>
<path d="M2007 3067 c-3 -8 1 -14 9 -14 16 0 19 13 5 21 -5 3 -11 0 -14 -7z"/>
<path d="M1970 3060 c0 -5 5 -10 11 -10 5 0 7 5 4 10 -3 6 -8 10 -11 10 -2 0
-4 -4 -4 -10z"/>
<path d="M8214 3054 c-18 -14 -18 -15 4 -4 13 6 30 9 38 6 9 -3 12 -1 9 4 -9
14 -28 12 -51 -6z"/>
<path d="M2046 3024 c-11 -8 -16 -14 -10 -14 13 0 39 18 34 24 -3 2 -14 -2
-24 -10z"/>
<path d="M8190 3021 c0 -6 4 -12 8 -15 5 -3 9 1 9 9 0 8 -4 15 -9 15 -4 0 -8
-4 -8 -9z"/>
<path d="M8152 3001 c-11 -7 -10 -9 3 -14 11 -5 14 -3 9 5 -5 8 -2 9 10 5 10
-4 15 -3 11 3 -7 12 -16 12 -33 1z"/>
<path d="M8310 2999 c0 -5 5 -7 10 -4 6 3 10 8 10 11 0 2 -4 4 -10 4 -5 0 -10
-5 -10 -11z"/>
<path d="M2053 2985 c0 -8 4 -12 9 -9 5 3 6 10 3 15 -9 13 -12 11 -12 -6z"/>
<path d="M2217 2934 c-11 -11 3 -24 24 -24 13 0 18 -4 13 -12 -4 -7 -3 -8 5
-4 16 10 4 26 -20 26 -11 0 -17 5 -14 10 7 11 2 13 -8 4z"/>
<path d="M2195 2900 c3 -5 8 -10 11 -10 2 0 4 5 4 10 0 6 -5 10 -11 10 -5 0
-7 -4 -4 -10z"/>
<path d="M7939 2884 c-13 -14 -17 -23 -9 -19 13 5 46 45 37 45 -2 0 -14 -11
-28 -26z"/>
<path d="M2295 2880 c-3 -5 -1 -10 4 -10 6 0 11 5 11 10 0 6 -2 10 -4 10 -3 0
-8 -4 -11 -10z"/>
<path d="M7970 2882 c0 -5 7 -9 15 -9 8 0 12 4 9 9 -3 4 -9 8 -15 8 -5 0 -9
-4 -9 -8z"/>
<path d="M8014 2875 c3 -23 12 -26 13 -5 1 11 -2 20 -7 20 -4 0 -7 -7 -6 -15z"/>
<path d="M2196 2858 c3 -4 11 -5 19 -1 21 7 19 12 -4 10 -11 0 -18 -5 -15 -9z"/>
<path d="M2270 2860 c0 -5 5 -10 11 -10 5 0 7 5 4 10 -3 6 -8 10 -11 10 -2 0
-4 -4 -4 -10z"/>
<path d="M2333 2845 c0 -8 4 -12 9 -9 4 3 8 0 8 -7 0 -7 2 -10 5 -7 7 7 -5 38
-14 38 -4 0 -8 -7 -8 -15z"/>
<path d="M7950 2845 c0 -8 2 -15 4 -15 2 0 6 7 10 15 3 8 1 15 -4 15 -6 0 -10
-7 -10 -15z"/>
<path d="M7893 2805 c0 -7 6 -11 14 -8 7 3 13 6 13 8 0 2 -6 5 -13 8 -8 3 -14
-1 -14 -8z"/>
<path d="M2430 2800 c0 -5 5 -10 11 -10 5 0 7 5 4 10 -3 6 -8 10 -11 10 -2 0
-4 -4 -4 -10z"/>
<path d="M2417 2769 c4 -13 8 -18 11 -10 2 7 -1 18 -6 23 -8 8 -9 4 -5 -13z"/>
<path d="M2347 2759 c7 -7 15 -10 18 -7 3 3 -2 9 -12 12 -14 6 -15 5 -6 -5z"/>
<path d="M2440 2766 c0 -2 8 -10 18 -17 15 -13 16 -12 3 4 -13 16 -21 21 -21
13z"/>
<path d="M7743 2750 c-9 -14 -10 -21 -1 -26 7 -4 8 -3 4 5 -4 6 0 14 8 17 9 3
16 10 16 15 0 15 -15 10 -27 -11z"/>
<path d="M7776 2738 c-6 -18 -4 -49 2 -43 6 6 10 55 5 55 -2 0 -5 -6 -7 -12z"/>
<path d="M7853 2735 c0 -8 4 -12 9 -9 5 3 6 10 3 15 -9 13 -12 11 -12 -6z"/>
<path d="M7685 2720 c-3 -5 -1 -10 4 -10 6 0 11 5 11 10 0 6 -2 10 -4 10 -3 0
-8 -4 -11 -10z"/>
<path d="M7713 2709 c-2 -23 3 -25 10 -4 4 8 3 16 -1 19 -4 3 -9 -4 -9 -15z"/>
<path d="M2455 2700 c-3 -5 -1 -10 4 -10 6 0 11 5 11 10 0 6 -2 10 -4 10 -3 0
-8 -4 -11 -10z"/>
<path d="M2515 2700 c-3 -6 1 -7 10 -4 11 5 14 2 9 -12 -5 -15 -4 -16 4 -4 11
15 7 30 -8 30 -5 0 -12 -4 -15 -10z"/>
<path d="M7739 2708 c-6 -21 -5 -38 1 -38 5 0 8 9 7 20 -1 17 -5 26 -8 18z"/>
<path d="M2557 2687 c-3 -8 1 -14 8 -14 7 0 11 6 8 14 -3 7 -6 13 -8 13 -2 0
-5 -6 -8 -13z"/>
<path d="M2599 2688 c-6 -25 -6 -38 1 -38 12 0 20 29 10 35 -6 4 -10 5 -11 3z"/>
<path d="M7610 2651 c0 -6 4 -12 8 -15 5 -3 9 1 9 9 0 8 -4 15 -9 15 -4 0 -8
-4 -8 -9z"/>
<path d="M2615 2640 c-3 -6 1 -7 9 -4 18 7 21 14 7 14 -6 0 -13 -4 -16 -10z"/>
<path d="M7615 2610 c-4 -6 -11 -7 -17 -4 -7 4 -8 2 -4 -5 6 -9 11 -9 22 0 14
11 18 19 10 19 -3 0 -8 -5 -11 -10z"/>
<path d="M2633 2595 c0 -8 4 -12 9 -9 4 3 8 9 8 15 0 5 -4 9 -8 9 -5 0 -9 -7
-9 -15z"/>
<path d="M2755 2569 c-4 -6 -5 -12 -2 -15 2 -3 7 2 10 11 7 17 1 20 -8 4z"/>
<path d="M2779 2528 c-5 -18 -6 -38 -1 -34 7 8 12 36 6 36 -2 0 -4 -1 -5 -2z"/>
<path d="M2843 2518 c15 -5 24 -14 21 -20 -5 -7 -2 -8 6 -3 10 6 9 11 -5 22
-11 7 -26 13 -34 12 -9 0 -4 -5 12 -11z"/>
<path d="M7486 2518 c3 -5 10 -6 15 -3 13 9 11 12 -6 12 -8 0 -12 -4 -9 -9z"/>
<path d="M2837 2493 c6 -16 5 -17 -13 -3 -15 11 -16 11 -7 0 7 -8 20 -15 28
-16 12 -2 13 2 5 17 -13 24 -22 25 -13 2z"/>
<path d="M7375 2500 c-4 -6 -10 -8 -15 -5 -4 3 -13 -2 -20 -10 -7 -8 -9 -15
-4 -16 5 0 -2 -5 -16 -11 -14 -6 -29 -10 -33 -9 -4 1 -3 -8 3 -19 13 -24 14
-24 31 -2 13 15 12 16 -3 3 -11 -8 -18 -9 -18 -3 0 16 57 41 69 31 8 -6 8 -5
1 3 -7 8 -4 18 7 30 9 10 13 18 10 18 -3 0 -9 -5 -12 -10z"/>
<path d="M7415 2499 c-4 -6 -4 -13 -1 -16 3 -4 6 -1 6 6 0 7 5 9 12 5 7 -4 8
-3 4 4 -9 15 -13 15 -21 1z"/>
<path d="M7410 2459 c0 -5 5 -7 10 -4 6 3 10 8 10 11 0 2 -4 4 -10 4 -5 0 -10
-5 -10 -11z"/>
<path d="M2935 2450 c-3 -6 1 -13 9 -16 9 -3 13 -10 10 -15 -3 -5 2 -6 12 -2
14 5 14 7 -5 18 -12 6 -18 14 -15 18 4 4 5 7 1 7 -3 0 -9 -5 -12 -10z"/>
<path d="M7346 2442 c-3 -5 1 -9 9 -9 8 0 12 4 9 9 -3 4 -7 8 -9 8 -2 0 -6 -4
-9 -8z"/>
<path d="M7335 2411 c-3 -5 -2 -12 3 -15 5 -3 9 1 9 9 0 17 -3 19 -12 6z"/>
<path d="M7205 2390 c-10 -11 -13 -20 -7 -20 7 0 12 5 12 11 0 5 4 8 8 5 5 -3
9 1 9 9 0 19 0 19 -22 -5z"/>
<path d="M7270 2396 c0 -8 4 -18 10 -21 6 -4 7 1 3 11 -5 13 -3 15 7 9 9 -5
11 -4 6 3 -10 17 -26 15 -26 -2z"/>
<path d="M2956 2362 c-3 -5 1 -9 9 -9 8 0 12 4 9 9 -3 4 -7 8 -9 8 -2 0 -6 -4
-9 -8z"/>
<path d="M7154 2356 c-16 -12 -17 -17 -6 -28 11 -11 12 -10 7 5 -5 12 -2 17 9
17 9 0 16 5 16 10 0 13 -3 13 -26 -4z"/>
<path d="M7220 2362 c0 -5 7 -9 15 -9 8 0 12 4 9 9 -3 4 -9 8 -15 8 -5 0 -9
-4 -9 -8z"/>
<path d="M7194 2345 c1 -8 8 -21 16 -28 12 -10 12 -9 2 4 -6 9 -9 18 -6 21 3
3 1 9 -4 12 -6 3 -9 -1 -8 -9z"/>
<path d="M3026 2341 c8 -8 43 -8 38 0 -2 4 -13 7 -24 6 -10 -1 -17 -3 -14 -6z"/>
<path d="M3154 2300 c0 -16 3 -27 6 -25 8 5 6 42 -1 50 -3 2 -5 -8 -5 -25z"/>
<path d="M7276 2322 c-3 -5 1 -9 9 -9 8 0 12 4 9 9 -3 4 -7 8 -9 8 -2 0 -6 -4
-9 -8z"/>
<path d="M3069 2283 c-13 -16 -12 -17 4 -4 9 7 17 15 17 17 0 8 -8 3 -21 -13z"/>
<path d="M3119 2273 c-13 -16 -12 -17 4 -4 16 13 21 21 13 21 -2 0 -10 -8 -17
-17z"/>
<path d="M7090 2256 c0 -2 8 -10 18 -17 15 -13 16 -12 3 4 -13 16 -21 21 -21
13z"/>
<path d="M3176 2241 c8 -8 43 -8 38 0 -2 4 -13 7 -24 6 -10 -1 -17 -3 -14 -6z"/>
<path d="M6969 2219 l-24 -20 28 17 c15 9 27 18 27 20 0 8 -8 4 -31 -17z"/>
<path d="M6976 2193 c-5 -12 -4 -13 7 -5 8 7 16 9 19 6 3 -3 8 -1 11 3 3 5 -3
9 -13 10 -10 1 -21 -5 -24 -14z"/>
<path d="M3255 2180 c3 -5 8 -10 11 -10 2 0 4 5 4 10 0 6 -5 10 -11 10 -5 0
-7 -4 -4 -10z"/>
<path d="M6939 2153 c-13 -16 -12 -17 4 -4 16 13 21 21 13 21 -2 0 -10 -8 -17
-17z"/>
<path d="M6890 2140 c0 -5 5 -10 11 -10 5 0 7 5 4 10 -3 6 -8 10 -11 10 -2 0
-4 -4 -4 -10z"/>
<path d="M6840 2115 c-19 -22 -8 -25 13 -3 9 10 13 18 8 18 -5 0 -14 -7 -21
-15z"/>
<path d="M3456 2111 c-3 -5 1 -11 9 -14 9 -4 12 -1 8 9 -6 16 -10 17 -17 5z"/>
<path d="M6779 2098 c0 -2 -2 -11 -4 -21 -3 -15 -1 -16 11 -6 7 6 11 15 8 20
-5 9 -13 12 -15 7z"/>
<path d="M3510 2060 c-9 -6 -10 -10 -3 -10 6 0 15 5 18 10 8 12 4 12 -15 0z"/>
<path d="M6870 2059 c0 -5 5 -7 10 -4 6 3 10 8 10 11 0 2 -4 4 -10 4 -5 0 -10
-5 -10 -11z"/>
<path d="M6694 2022 c4 -7 3 -12 -3 -12 -6 0 -15 -8 -20 -18 -7 -14 -6 -19 4
-19 7 0 11 7 7 15 -3 9 -1 13 5 9 6 -4 13 0 17 8 3 8 0 17 -6 21 -7 4 -8 3 -4
-4z"/>
<path d="M6747 2019 c7 -7 15 -10 18 -7 3 3 -2 9 -12 12 -14 6 -15 5 -6 -5z"/>
<path d="M3562 2007 c10 -8 14 -18 10 -22 -4 -5 -1 -5 6 -1 17 10 15 14 -10
26 -21 10 -21 10 -6 -3z"/>
<path d="M3486 1998 c3 -5 10 -6 15 -3 13 9 11 12 -6 12 -8 0 -12 -4 -9 -9z"/>
<path d="M3520 1980 c-8 -5 -10 -10 -5 -10 6 0 17 5 25 10 8 5 11 10 5 10 -5
0 -17 -5 -25 -10z"/>
<path d="M3621 1964 c0 -11 3 -14 6 -6 3 7 2 16 -1 19 -3 4 -6 -2 -5 -13z"/>
<path d="M6559 1954 c-23 -26 -23 -26 -1 -13 12 8 22 18 22 24 0 5 4 3 10 -5
5 -8 12 -12 15 -9 3 4 -1 11 -8 17 -11 9 -19 6 -38 -14z"/>
<path d="M3640 1966 c0 -2 8 -10 18 -17 15 -13 16 -12 3 4 -13 16 -21 21 -21
13z"/>
<path d="M6616 1927 c3 -10 9 -15 12 -12 3 3 0 11 -7 18 -10 9 -11 8 -5 -6z"/>
<path d="M3670 1926 c0 -2 7 -7 16 -10 8 -3 12 -2 9 4 -6 10 -25 14 -25 6z"/>
<path d="M6568 1923 c6 -2 9 -10 6 -15 -4 -7 -2 -8 5 -4 13 9 5 26 -12 25 -9
0 -8 -2 1 -6z"/>
<path d="M3731 1888 l-14 -23 24 20 c13 11 26 21 28 22 2 2 -2 3 -10 3 -8 0
-20 -10 -28 -22z"/>
<path d="M3695 1891 c-3 -5 -2 -12 3 -15 5 -3 9 1 9 9 0 17 -3 19 -12 6z"/>
<path d="M3776 1892 c-2 -4 -1 -14 4 -22 7 -11 9 -9 7 8 -1 24 -3 26 -11 14z"/>
<path d="M6535 1890 c-4 -6 -16 -8 -28 -4 -12 3 -19 3 -15 -1 14 -14 55 -13
55 1 0 17 -4 18 -12 4z"/>
<path d="M3833 1860 c2 -8 9 -15 16 -15 7 0 19 -9 27 -19 8 -11 14 -15 14 -9
0 5 -9 18 -20 28 -11 10 -20 14 -20 9 0 -5 -5 -2 -11 6 -9 13 -10 13 -6 0z"/>
<path d="M3810 1845 c0 -8 4 -15 10 -15 5 0 7 7 4 15 -4 8 -8 15 -10 15 -2 0
-4 -7 -4 -15z"/>
<path d="M6540 1846 c0 -2 8 -10 18 -17 15 -13 16 -12 3 4 -13 16 -21 21 -21
13z"/>
<path d="M6391 1833 c4 -22 -2 -34 -13 -27 -7 4 -10 3 -5 -1 4 -5 16 -9 27
-10 16 -1 18 1 7 14 -10 12 -9 14 6 8 23 -9 22 0 -3 13 -11 6 -20 7 -19 3z"/>
<path d="M3770 1826 c0 -2 7 -7 16 -10 8 -3 12 -2 9 4 -6 10 -25 14 -25 6z"/>
<path d="M3839 1812 c-13 -15 -12 -16 3 -4 13 10 17 10 21 0 4 -9 6 -9 6 -1 2
20 -16 24 -30 5z"/>
<path d="M6297 1759 c4 -13 8 -18 11 -10 2 7 -1 18 -6 23 -8 8 -9 4 -5 -13z"/>
<path d="M6330 1770 c-8 -5 -12 -12 -9 -15 4 -3 12 1 19 10 14 17 11 19 -10 5z"/>
<path d="M3950 1760 c0 -5 5 -10 10 -10 6 0 10 5 10 10 0 6 -4 10 -10 10 -5 0
-10 -4 -10 -10z"/>
<path d="M3985 1745 c-11 -8 -15 -15 -8 -15 6 0 15 4 18 10 4 6 11 5 19 -3 8
-6 11 -16 8 -21 -3 -5 0 -6 6 -2 7 4 12 3 12 -3 0 -5 -6 -12 -12 -14 -10 -4
-10 -6 -1 -6 24 -2 25 22 1 45 -22 22 -26 23 -43 9z"/>
<path d="M6267 1749 c7 -7 15 -10 18 -7 3 3 -2 9 -12 12 -14 6 -15 5 -6 -5z"/>
<path d="M3895 1740 c-3 -5 -1 -10 4 -10 6 0 11 5 11 10 0 6 -2 10 -4 10 -3 0
-8 -4 -11 -10z"/>
<path d="M6286 1718 c3 -5 10 -6 15 -3 13 9 11 12 -6 12 -8 0 -12 -4 -9 -9z"/>
<path d="M4063 1693 c-18 -7 -16 -20 2 -20 8 0 12 4 9 9 -3 4 -1 8 4 8 6 0 12
-7 16 -15 3 -8 0 -15 -6 -15 -6 0 -8 -3 -5 -6 4 -4 13 -1 22 6 17 14 21 1 5
-18 -5 -7 -3 -6 6 2 16 14 11 41 -6 31 -4 -3 -10 2 -14 10 -6 15 -12 17 -33 8z"/>
<path d="M6221 1677 c-13 -21 -12 -21 5 -5 10 10 16 20 13 22 -3 3 -11 -5 -18
-17z"/>
<path d="M4016 1662 c-3 -5 1 -9 9 -9 8 0 12 4 9 9 -3 4 -7 8 -9 8 -2 0 -6 -4
-9 -8z"/>
<path d="M6236 1653 c-6 -14 -5 -15 5 -6 7 7 10 15 7 18 -3 3 -9 -2 -12 -12z"/>
<path d="M4163 1643 c4 -6 -3 -24 -15 -39 -13 -16 -15 -23 -7 -17 9 7 19 11
22 8 4 -3 5 -2 2 1 -2 4 0 15 5 25 7 12 6 20 -2 25 -6 4 -8 3 -5 -3z"/>
<path d="M6193 1635 c0 -8 4 -12 9 -9 4 3 8 9 8 15 0 5 -4 9 -8 9 -5 0 -9 -7
-9 -15z"/>
<path d="M4070 1619 c0 -5 5 -7 10 -4 6 3 10 8 10 11 0 2 -4 4 -10 4 -5 0 -10
-5 -10 -11z"/>
<path d="M4115 1620 c-3 -5 -1 -10 4 -10 6 0 11 5 11 10 0 6 -2 10 -4 10 -3 0
-8 -4 -11 -10z"/>
<path d="M6067 1596 c5 -14 3 -17 -7 -11 -8 5 -11 4 -7 -3 8 -11 33 -11 42 1
3 4 2 5 -2 2 -3 -3 -12 3 -20 13 -12 16 -13 16 -6 -2z"/>
<path d="M6110 1600 c0 -5 5 -10 11 -10 5 0 7 5 4 10 -3 6 -8 10 -11 10 -2 0
-4 -4 -4 -10z"/>
<path d="M4230 1552 c0 -6 9 -12 20 -15 11 -3 20 -3 20 -1 0 2 -9 8 -20 14
-11 6 -20 7 -20 2z"/>
<path d="M4278 1553 c7 -3 16 -2 19 1 4 3 -2 6 -13 5 -11 0 -14 -3 -6 -6z"/>
<path d="M6006 1523 c-6 -14 -5 -15 5 -6 7 7 10 15 7 18 -3 3 -9 -2 -12 -12z"/>
<path d="M4276 1522 c-3 -5 1 -9 9 -9 8 0 15 4 15 9 0 4 -4 8 -9 8 -6 0 -12
-4 -15 -8z"/>
<path d="M6030 1520 c0 -5 5 -10 11 -10 5 0 7 5 4 10 -3 6 -8 10 -11 10 -2 0
-4 -4 -4 -10z"/>
<path d="M4348 1513 c6 -2 9 -10 6 -15 -4 -7 -2 -8 5 -4 13 9 5 26 -12 25 -9
0 -8 -2 1 -6z"/>
<path d="M5911 1493 c-1 -17 16 -25 25 -12 4 7 3 9 -4 5 -5 -3 -13 0 -15 6 -4
9 -6 10 -6 1z"/>
<path d="M5785 1440 c-3 -5 -1 -10 4 -10 6 0 11 5 11 10 0 6 -2 10 -4 10 -3 0
-8 -4 -11 -10z"/>
<path d="M4483 1413 c-17 -6 -17 -20 0 -20 8 0 14 6 14 14 0 7 -1 13 -1 12 -1
0 -7 -3 -13 -6z"/>
<path d="M5796 1407 c3 -10 9 -15 12 -12 3 3 0 11 -7 18 -10 9 -11 8 -5 -6z"/>
<path d="M4430 1396 c7 -7 13 -7 20 0 6 6 3 10 -10 10 -13 0 -16 -4 -10 -10z"/>
<path d="M4536 1397 c3 -10 9 -15 12 -12 3 3 0 11 -7 18 -10 9 -11 8 -5 -6z"/>
<path d="M5753 1392 c2 -12 6 -24 10 -28 3 -4 4 4 2 16 -6 30 -16 40 -12 12z"/>
<path d="M5833 1395 c0 -8 4 -12 9 -9 5 3 6 10 3 15 -9 13 -12 11 -12 -6z"/>
<path d="M4581 1353 c0 -11 3 -13 6 -5 2 6 10 9 15 6 7 -4 8 -2 4 4 -11 18
-26 14 -25 -5z"/>
<path d="M4535 1340 c3 -5 8 -10 11 -10 2 0 4 5 4 10 0 6 -5 10 -11 10 -5 0
-7 -4 -4 -10z"/>
<path d="M5656 1342 c-3 -5 1 -9 9 -9 8 0 12 4 9 9 -3 4 -7 8 -9 8 -2 0 -6 -4
-9 -8z"/>
<path d="M5690 1339 c0 -5 5 -7 10 -4 6 3 10 8 10 11 0 2 -4 4 -10 4 -5 0 -10
-5 -10 -11z"/>
<path d="M4610 1336 c0 -3 9 -10 20 -16 11 -6 20 -8 20 -6 0 3 -9 10 -20 16
-11 6 -20 8 -20 6z"/>
<path d="M5580 1336 c0 -2 7 -6 15 -10 8 -3 15 -1 15 4 0 6 -7 10 -15 10 -8 0
-15 -2 -15 -4z"/>
<path d="M4745 1313 c-5 -12 -9 -14 -12 -5 -6 16 -20 15 -26 -1 -3 -9 2 -13
14 -12 21 1 46 22 37 30 -3 3 -9 -2 -13 -12z"/>
<path d="M5536 1318 c3 -4 12 -8 20 -8 8 0 14 4 14 8 0 4 -9 8 -19 8 -11 0
-17 -4 -15 -8z"/>
<path d="M4793 1295 c0 -7 7 -11 15 -7 9 3 13 1 9 -4 -3 -6 3 -11 14 -11 11
-1 19 3 17 8 -2 6 -8 11 -13 11 -6 0 -17 4 -26 8 -11 6 -16 5 -16 -5z"/>
<path d="M5510 1300 c0 -5 5 -10 10 -10 6 0 10 5 10 10 0 6 -4 10 -10 10 -5 0
-10 -4 -10 -10z"/>
<path d="M4669 1283 c-13 -16 -12 -17 4 -4 9 7 17 15 17 17 0 8 -8 3 -21 -13z"/>
<path d="M4749 1283 c-13 -17 -13 -17 6 -3 11 8 22 16 24 17 2 2 0 3 -6 3 -6
0 -17 -8 -24 -17z"/>
<path d="M4595 1280 c3 -5 8 -10 11 -10 2 0 4 5 4 10 0 6 -5 10 -11 10 -5 0
-7 -4 -4 -10z"/>
<path d="M4894 1276 c10 -9 22 -13 27 -11 4 3 10 0 12 -5 4 -7 5 -6 4 1 -2 6
-7 11 -12 11 -6 0 -19 4 -30 10 -19 9 -19 9 -1 -6z"/>
<path d="M5322 1277 c0 -7 -3 -22 -6 -34 -2 -13 -1 -25 4 -28 4 -3 7 3 5 12
-1 10 2 26 6 35 5 9 5 19 1 22 -5 3 -9 0 -10 -7z"/>
<path d="M5297 1273 c-4 -3 -7 -11 -7 -17 0 -6 5 -5 12 2 6 6 9 14 7 17 -3 3
-9 2 -12 -2z"/>
<path d="M4793 1255 c0 -8 4 -12 9 -9 5 3 6 10 3 15 -9 13 -12 11 -12 -6z"/>
<path d="M4859 1268 c-6 -18 -3 -46 3 -42 5 4 7 13 4 21 -5 11 -2 13 9 9 9 -3
13 -2 10 4 -5 9 -24 14 -26 8z"/>
<path d="M5020 1260 c-9 -6 -10 -10 -3 -10 6 0 15 5 18 10 8 12 4 12 -15 0z"/>
<path d="M5190 1264 c0 -5 7 -18 15 -28 8 -11 15 -16 15 -10 0 5 -7 18 -15 28
-8 11 -15 16 -15 10z"/>
<path d="M5216 1258 c3 -5 10 -6 15 -3 13 9 11 12 -6 12 -8 0 -12 -4 -9 -9z"/>
<path d="M5257 1259 c7 -7 15 -10 18 -7 3 3 -2 9 -12 12 -14 6 -15 5 -6 -5z"/>
<path d="M5410 1260 c0 -5 5 -10 11 -10 5 0 7 5 4 10 -3 6 -8 10 -11 10 -2 0
-4 -4 -4 -10z"/>
<path d="M5460 1260 c-9 -6 -10 -10 -3 -10 6 0 15 5 18 10 8 12 4 12 -15 0z"/>
<path d="M5490 1259 c0 -5 5 -7 10 -4 6 3 10 8 10 11 0 2 -4 4 -10 4 -5 0 -10
-5 -10 -11z"/>
<path d="M4943 1240 c-8 -12 -9 -21 -3 -25 6 -4 9 -1 8 7 -2 7 2 12 9 11 7 -2
10 4 7 12 -8 19 -7 19 -21 -5z"/>
<path d="M4986 1243 c-6 -14 -5 -15 5 -6 7 7 10 15 7 18 -3 3 -9 -2 -12 -12z"/>
<path d="M5150 1246 c0 -2 7 -6 15 -10 8 -3 15 -1 15 4 0 6 -7 10 -15 10 -8 0
-15 -2 -15 -4z"/>
<path d="M5236 1242 c-3 -5 1 -9 9 -9 8 0 12 4 9 9 -3 4 -7 8 -9 8 -2 0 -6 -4
-9 -8z"/>
<path d="M5347 1239 c7 -7 15 -10 18 -7 3 3 -2 9 -12 12 -14 6 -15 5 -6 -5z"/>
<path d="M5042 1224 c10 -10 20 -16 22 -13 3 3 -5 11 -17 18 -21 13 -21 12 -5
-5z"/>
<path d="M5117 1229 c7 -7 15 -10 18 -7 3 3 -2 9 -12 12 -14 6 -15 5 -6 -5z"/>
<path d="M5250 1199 c0 -5 5 -7 10 -4 6 3 10 8 10 11 0 2 -4 4 -10 4 -5 0 -10
-5 -10 -11z"/>
</g>
</svg>
